<svg width="600" height="500" viewBox="0 0 600 500" fill="none" xmlns="http://www.w3.org/2000/svg">
<g clip-path="url(#clip0_22_205)">
<rect width="600" height="500" fill="#271A58"/>
<rect x="0.405198" y="0.579161" width="166.875" height="222.834" rx="29.5" transform="matrix(0.984808 0.173648 -0.174411 0.984673 -72.7222 -166.031)" fill="#565EEF"/>
<rect x="0.405198" y="0.579161" width="166.875" height="222.834" rx="29.5" transform="matrix(0.984808 0.173648 -0.174411 0.984673 -72.7222 -166.031)" stroke="#271A58"/>
<rect x="0.405198" y="0.579161" width="166.875" height="222.834" rx="29.5" transform="matrix(0.984808 0.173648 -0.174411 0.984673 102.307 -135.169)" fill="#009EE4"/>
<rect x="0.405198" y="0.579161" width="166.875" height="222.834" rx="29.5" transform="matrix(0.984808 0.173648 -0.174411 0.984673 102.307 -135.169)" stroke="#271A58"/>
<mask id="path-4-outside-1_22_205" maskUnits="userSpaceOnUse" x="135.085" y="-43.8063" width="56.5762" height="66.2572" fill="black">
<rect fill="white" x="135.085" y="-43.8063" width="56.5762" height="66.2572"/>
<path d="M157.406 -3.85962C157.856 -6.40165 158.785 -8.38749 160.192 -9.81714C161.607 -11.2976 163.559 -12.841 166.046 -14.4472C167.763 -15.5599 169.059 -16.5111 169.933 -17.3007C170.816 -18.1411 171.352 -19.0952 171.541 -20.1628C171.802 -21.6372 171.374 -22.9186 170.256 -24.007C169.197 -25.1374 167.677 -25.8773 165.694 -26.227C163.66 -26.5856 161.718 -26.4299 159.869 -25.7598C158.071 -25.0807 156.51 -23.9666 155.187 -22.4173L144.903 -30.522C147.619 -33.7133 151.059 -35.9641 155.223 -37.2744C159.388 -38.5848 164.165 -38.7648 169.555 -37.8144C175.606 -36.7475 180.237 -34.6202 183.448 -31.4326C186.718 -28.2869 187.953 -24.4517 187.151 -19.9269C186.782 -17.8424 186.098 -16.0495 185.098 -14.5481C184.107 -13.0976 183.003 -11.9027 181.788 -10.9635C180.633 -10.0662 179.146 -9.0702 177.326 -7.97545C175.337 -6.80591 173.84 -5.75903 172.838 -4.83483C171.844 -3.96147 171.225 -2.83845 170.982 -1.46575L157.406 -3.85962ZM160.628 17.4702C158.137 17.0309 156.212 15.9052 154.855 14.093C153.507 12.2301 153.032 10.1801 153.428 7.9431C153.833 5.65528 154.954 3.91314 156.792 2.7167C158.68 1.52923 160.895 1.15964 163.438 1.60793C165.98 2.05622 167.934 3.16101 169.3 4.92229C170.666 6.68358 171.147 8.70813 170.741 10.996C170.345 13.2329 169.194 14.996 167.288 16.2852C165.39 17.5235 163.17 17.9185 160.628 17.4702Z"/>
</mask>
<path d="M157.406 -3.85962C157.856 -6.40165 158.785 -8.38749 160.192 -9.81714C161.607 -11.2976 163.559 -12.841 166.046 -14.4472C167.763 -15.5599 169.059 -16.5111 169.933 -17.3007C170.816 -18.1411 171.352 -19.0952 171.541 -20.1628C171.802 -21.6372 171.374 -22.9186 170.256 -24.007C169.197 -25.1374 167.677 -25.8773 165.694 -26.227C163.66 -26.5856 161.718 -26.4299 159.869 -25.7598C158.071 -25.0807 156.51 -23.9666 155.187 -22.4173L144.903 -30.522C147.619 -33.7133 151.059 -35.9641 155.223 -37.2744C159.388 -38.5848 164.165 -38.7648 169.555 -37.8144C175.606 -36.7475 180.237 -34.6202 183.448 -31.4326C186.718 -28.2869 187.953 -24.4517 187.151 -19.9269C186.782 -17.8424 186.098 -16.0495 185.098 -14.5481C184.107 -13.0976 183.003 -11.9027 181.788 -10.9635C180.633 -10.0662 179.146 -9.0702 177.326 -7.97545C175.337 -6.80591 173.84 -5.75903 172.838 -4.83483C171.844 -3.96147 171.225 -2.83845 170.982 -1.46575L157.406 -3.85962ZM160.628 17.4702C158.137 17.0309 156.212 15.9052 154.855 14.093C153.507 12.2301 153.032 10.1801 153.428 7.9431C153.833 5.65528 154.954 3.91314 156.792 2.7167C158.68 1.52923 160.895 1.15964 163.438 1.60793C165.98 2.05622 167.934 3.16101 169.3 4.92229C170.666 6.68358 171.147 8.70813 170.741 10.996C170.345 13.2329 169.194 14.996 167.288 16.2852C165.39 17.5235 163.17 17.9185 160.628 17.4702Z" fill="white"/>
<path d="M157.406 -3.85962L156.612 -3.99971L156.471 -3.20532L157.265 -3.06523L157.406 -3.85962ZM160.192 -9.81714L160.767 -9.2516L160.775 -9.25994L160.192 -9.81714ZM166.046 -14.4472L166.483 -13.7698L166.484 -13.7703L166.046 -14.4472ZM169.933 -17.3007L170.474 -16.7024L170.482 -16.7094L170.489 -16.7167L169.933 -17.3007ZM170.256 -24.007L169.666 -23.4556L169.679 -23.4419L169.693 -23.4289L170.256 -24.007ZM159.869 -25.7598L159.595 -26.5182L159.585 -26.5144L159.869 -25.7598ZM155.187 -22.4173L154.687 -21.7837L155.297 -21.3036L155.801 -21.8938L155.187 -22.4173ZM144.903 -30.522L144.289 -31.0444L143.746 -30.4065L144.404 -29.8884L144.903 -30.522ZM155.223 -37.2744L155.465 -36.505L155.465 -36.505L155.223 -37.2744ZM183.448 -31.4326L182.879 -30.86L182.888 -30.8511L183.448 -31.4326ZM185.098 -14.5481L185.764 -14.0934L185.769 -14.1014L185.098 -14.5481ZM181.788 -10.9635L181.295 -11.6016L181.294 -11.6004L181.788 -10.9635ZM177.326 -7.97545L177.735 -7.2801L177.742 -7.28441L177.326 -7.97545ZM172.838 -4.83483L173.37 -4.22919L173.377 -4.2355L173.384 -4.24197L172.838 -4.83483ZM170.982 -1.46575L170.842 -0.671365L171.636 -0.531274L171.777 -1.32566L170.982 -1.46575ZM154.855 14.093L154.201 14.5662L154.209 14.5768L154.855 14.093ZM156.792 2.7167L156.362 2.03392L156.352 2.04088L156.792 2.7167ZM169.3 4.92229L168.662 5.41685L168.662 5.41685L169.3 4.92229ZM167.288 16.2852L167.728 16.9606L167.739 16.9532L167.288 16.2852ZM158.2 -3.71953C158.63 -6.14685 159.503 -7.96774 160.767 -9.25166L159.617 -10.3826C158.066 -8.80724 157.082 -6.65645 156.612 -3.99971L158.2 -3.71953ZM160.775 -9.25994C162.132 -10.6795 164.028 -12.1841 166.483 -13.7698L165.608 -15.1247C163.089 -13.4979 161.083 -11.9157 159.609 -10.3744L160.775 -9.25994ZM166.484 -13.7703C168.216 -14.8921 169.553 -15.8704 170.474 -16.7024L169.392 -17.8989C168.565 -17.1517 167.311 -16.2277 165.607 -15.1241L166.484 -13.7703ZM170.489 -16.7167C171.481 -17.6605 172.113 -18.7648 172.336 -20.0227L170.747 -20.3029C170.591 -19.4256 170.151 -18.6217 169.377 -17.8847L170.489 -16.7167ZM172.336 -20.0227C172.646 -21.7732 172.119 -23.3199 170.819 -24.5852L169.693 -23.4289C170.629 -22.5173 170.959 -21.5012 170.747 -20.3029L172.336 -20.0227ZM170.845 -24.5585C169.636 -25.8498 167.938 -26.6505 165.834 -27.0214L165.553 -25.4326C167.416 -25.1042 168.759 -24.4249 169.666 -23.4556L170.845 -24.5585ZM165.834 -27.0214C163.669 -27.4033 161.584 -27.2389 159.595 -26.5181L160.144 -25.0015C161.853 -25.621 163.651 -25.768 165.553 -25.4326L165.834 -27.0214ZM159.585 -26.5144C157.651 -25.7843 155.98 -24.5872 154.574 -22.9408L155.801 -21.8938C157.041 -23.346 158.491 -24.3771 160.154 -25.0052L159.585 -26.5144ZM155.687 -23.0509L145.403 -31.1557L144.404 -29.8884L154.687 -21.7837L155.687 -23.0509ZM145.518 -29.9997C148.13 -33.0701 151.439 -35.2383 155.465 -36.505L154.982 -38.0439C150.678 -36.6899 147.107 -34.3565 144.289 -31.0444L145.518 -29.9997ZM155.465 -36.505C159.479 -37.7678 164.121 -37.9535 169.415 -37.02L169.696 -38.6088C164.21 -39.5761 159.297 -39.4017 154.982 -38.0439L155.465 -36.505ZM169.415 -37.02C175.36 -35.9717 179.82 -33.897 182.879 -30.8601L184.016 -32.0052C180.654 -35.3434 175.852 -37.5233 169.696 -38.6088L169.415 -37.02ZM182.888 -30.8511C185.962 -27.8945 187.112 -24.331 186.357 -20.067L187.946 -19.7868C188.794 -24.5724 187.474 -28.6794 184.007 -32.0141L182.888 -30.8511ZM186.357 -20.067C186.004 -18.0733 185.355 -16.3889 184.426 -14.9949L185.769 -14.1014C186.841 -15.7101 187.561 -17.6115 187.946 -19.7868L186.357 -20.067ZM184.431 -15.0027C183.481 -13.6121 182.435 -12.4822 181.295 -11.6016L182.282 -10.3255C183.572 -11.3232 184.732 -12.583 185.764 -14.0935L184.431 -15.0027ZM181.294 -11.6004C180.172 -10.7293 178.714 -9.75141 176.911 -8.66649L177.742 -7.28441C179.578 -8.389 181.094 -9.4032 182.283 -10.3267L181.294 -11.6004ZM176.918 -8.67075C174.907 -7.48913 173.355 -6.40848 172.291 -5.4277L173.384 -4.24197C174.325 -5.10959 175.766 -6.12268 177.735 -7.28014L176.918 -8.67075ZM172.305 -5.44047C171.166 -4.43926 170.461 -3.1484 170.188 -1.60584L171.777 -1.32566C171.99 -2.52849 172.522 -3.48369 173.37 -4.22919L172.305 -5.44047ZM171.123 -2.26013L157.547 -4.654L157.265 -3.06523L170.842 -0.671365L171.123 -2.26013ZM160.769 16.6758C158.454 16.2676 156.721 15.2378 155.501 13.6093L154.209 14.5768C155.704 16.5726 157.82 17.7942 160.487 18.2646L160.769 16.6758ZM155.509 13.6199C154.287 11.9313 153.865 10.1021 154.222 8.08319L152.633 7.80301C152.198 10.2581 152.727 12.5288 154.201 14.5661L155.509 13.6199ZM154.222 8.08319C154.591 6.00042 155.594 4.45909 157.232 3.39252L156.352 2.04088C154.315 3.36719 153.075 5.31013 152.633 7.80301L154.222 8.08319ZM157.221 3.39941C158.913 2.33526 160.919 1.98295 163.297 2.40231L163.578 0.813545C160.872 0.336331 158.447 0.723201 156.362 2.034L157.221 3.39941ZM163.297 2.40231C165.675 2.82168 167.438 3.83848 168.662 5.41685L169.938 4.42774C168.43 2.48353 166.285 1.29076 163.578 0.813545L163.297 2.40231ZM168.662 5.41685C169.882 6.98985 170.314 8.78161 169.947 10.8559L171.536 11.1361C171.979 8.63465 171.45 6.3773 169.938 4.42774L168.662 5.41685ZM169.947 10.8559C169.589 12.8748 168.564 14.4486 166.836 15.6171L167.739 16.9532C169.824 15.5434 171.101 13.5911 171.536 11.1361L169.947 10.8559ZM166.847 15.6098C165.146 16.7203 163.14 17.0939 160.769 16.6758L160.487 18.2646C163.201 18.7431 165.635 18.3267 167.728 16.9605L166.847 15.6098Z" fill="#271A58" mask="url(#path-4-outside-1_22_205)"/>
<rect x="0.405198" y="0.579161" width="166.875" height="222.834" rx="29.5" transform="matrix(0.984808 0.173648 -0.174411 0.984673 277.337 -104.307)" fill="#AD61FF"/>
<rect x="0.405198" y="0.579161" width="166.875" height="222.834" rx="29.5" transform="matrix(0.984808 0.173648 -0.174411 0.984673 277.337 -104.307)" stroke="#271A58"/>
<mask id="path-7-outside-2_22_205" maskUnits="userSpaceOnUse" x="303.565" y="-20.2995" width="68.6916" height="80.7944" fill="black">
<rect fill="white" x="303.565" y="-20.2995" width="68.6916" height="80.7944"/>
<path d="M330.55 28.4666C331.108 25.3156 332.259 22.8541 334.002 21.082C335.757 19.2469 338.176 17.3338 341.259 15.3428C343.388 13.9636 344.994 12.7846 346.077 11.8059C347.172 10.7641 347.836 9.58151 348.071 8.25811C348.394 6.43055 347.863 4.8422 346.477 3.49303C345.166 2.09197 343.281 1.17472 340.823 0.741293C338.302 0.296754 335.895 0.489792 333.603 1.32041C331.374 2.16214 329.439 3.5432 327.799 5.46357L315.052 -4.58258C318.418 -8.53826 322.682 -11.3282 327.844 -12.9524C333.006 -14.5767 338.928 -14.7998 345.609 -13.6218C353.109 -12.2993 358.849 -9.66244 362.829 -5.71131C366.883 -1.81209 368.414 2.94187 367.42 8.55056C366.963 11.1343 366.114 13.3567 364.874 15.2178C363.646 17.0158 362.279 18.4968 360.773 19.661C359.341 20.7732 357.497 22.0079 355.242 23.3649C352.775 24.8146 350.92 26.1122 349.678 27.2578C348.446 28.3403 347.679 29.7324 347.378 31.4339L330.55 28.4666ZM334.544 54.9058C331.455 54.3612 329.07 52.9659 327.388 50.7197C325.717 48.4104 325.127 45.8694 325.618 43.0966C326.121 40.2607 327.511 38.1013 329.788 36.6182C332.129 35.1463 334.875 34.6882 338.026 35.2439C341.178 35.7995 343.6 37.169 345.293 39.3521C346.986 41.5353 347.582 44.0449 347.079 46.8807C346.588 49.6535 345.161 51.8389 342.798 53.4369C340.446 54.9718 337.695 55.4615 334.544 54.9058Z"/>
</mask>
<path d="M330.55 28.4666C331.108 25.3156 332.259 22.8541 334.002 21.082C335.757 19.2469 338.176 17.3338 341.259 15.3428C343.388 13.9636 344.994 12.7846 346.077 11.8059C347.172 10.7641 347.836 9.58151 348.071 8.25811C348.394 6.43055 347.863 4.8422 346.477 3.49303C345.166 2.09197 343.281 1.17472 340.823 0.741293C338.302 0.296754 335.895 0.489792 333.603 1.32041C331.374 2.16214 329.439 3.5432 327.799 5.46357L315.052 -4.58258C318.418 -8.53826 322.682 -11.3282 327.844 -12.9524C333.006 -14.5767 338.928 -14.7998 345.609 -13.6218C353.109 -12.2993 358.849 -9.66244 362.829 -5.71131C366.883 -1.81209 368.414 2.94187 367.42 8.55056C366.963 11.1343 366.114 13.3567 364.874 15.2178C363.646 17.0158 362.279 18.4968 360.773 19.661C359.341 20.7732 357.497 22.0079 355.242 23.3649C352.775 24.8146 350.92 26.1122 349.678 27.2578C348.446 28.3403 347.679 29.7324 347.378 31.4339L330.55 28.4666ZM334.544 54.9058C331.455 54.3612 329.07 52.9659 327.388 50.7197C325.717 48.4104 325.127 45.8694 325.618 43.0966C326.121 40.2607 327.511 38.1013 329.788 36.6182C332.129 35.1463 334.875 34.6882 338.026 35.2439C341.178 35.7995 343.6 37.169 345.293 39.3521C346.986 41.5353 347.582 44.0449 347.079 46.8807C346.588 49.6535 345.161 51.8389 342.798 53.4369C340.446 54.9718 337.695 55.4615 334.544 54.9058Z" fill="white"/>
<path d="M330.55 28.4666L329.755 28.3265L329.614 29.1209L330.409 29.261L330.55 28.4666ZM334.002 21.082L334.577 21.6475L334.585 21.6392L334.002 21.082ZM341.259 15.3428L341.696 16.0203L341.697 16.0197L341.259 15.3428ZM346.077 11.8059L346.618 12.4042L346.626 12.3971L346.634 12.3899L346.077 11.8059ZM346.477 3.49303L345.888 4.04449L345.901 4.05812L345.914 4.07116L346.477 3.49303ZM333.603 1.32041L333.328 0.562009L333.318 0.565832L333.603 1.32041ZM327.799 5.46357L327.3 6.09719L327.909 6.5773L328.413 5.98709L327.799 5.46357ZM315.052 -4.58258L314.438 -5.10495L313.895 -4.46704L314.552 -3.94896L315.052 -4.58258ZM327.844 -12.9524L328.086 -12.183L328.086 -12.183L327.844 -12.9524ZM362.829 -5.71131L362.26 -5.13866L362.27 -5.12981L362.829 -5.71131ZM364.874 15.2178L365.541 15.6724L365.546 15.6645L364.874 15.2178ZM360.773 19.661L360.279 19.023L360.278 19.0242L360.773 19.661ZM355.242 23.3649L355.65 24.0602L355.658 24.0559L355.242 23.3649ZM349.678 27.2578L350.21 27.8634L350.217 27.8571L350.224 27.8506L349.678 27.2578ZM347.378 31.4339L347.237 32.2283L348.032 32.3684L348.172 31.574L347.378 31.4339ZM327.388 50.7197L326.734 51.1928L326.742 51.2034L327.388 50.7197ZM329.788 36.6182L329.359 35.9354L329.348 35.9424L329.788 36.6182ZM345.293 39.3521L344.655 39.8467L344.655 39.8467L345.293 39.3521ZM342.798 53.4369L343.239 54.1123L343.25 54.1049L342.798 53.4369ZM331.344 28.6067C331.882 25.5704 332.977 23.2739 334.577 21.6475L333.427 20.5165C331.54 22.4344 330.334 25.0608 329.755 28.3265L331.344 28.6067ZM334.585 21.6392C336.282 19.865 338.645 17.9907 341.696 16.0203L340.821 14.6654C337.707 16.6769 335.233 18.6288 333.419 20.5248L334.585 21.6392ZM341.697 16.0197C343.84 14.6314 345.488 13.4253 346.618 12.4042L345.537 11.2076C344.5 12.1439 342.935 13.2958 340.82 14.666L341.697 16.0197ZM346.634 12.3899C347.837 11.2447 348.597 9.91191 348.865 8.3982L347.276 8.11801C347.076 9.2511 346.507 10.2835 345.521 11.2219L346.634 12.3899ZM348.865 8.3982C349.238 6.29456 348.608 4.44089 347.04 2.91491L345.914 4.07116C347.119 5.2435 347.551 6.56655 347.276 8.11801L348.865 8.3982ZM347.067 2.94158C345.604 1.37954 343.542 0.401536 340.963 -0.0530918L340.682 1.53568C343.02 1.9479 344.727 2.80439 345.888 4.04449L347.067 2.94158ZM340.963 -0.0530918C338.31 -0.520878 335.76 -0.31916 333.328 0.562077L333.877 2.07874C336.03 1.29874 338.293 1.11439 340.682 1.53568L340.963 -0.0530918ZM333.318 0.565832C330.954 1.45854 328.909 2.92259 327.186 4.94006L328.413 5.98709C329.97 4.1638 331.794 2.86574 333.888 2.07499L333.318 0.565832ZM328.299 4.82996L315.552 -5.2162L314.552 -3.94896L327.3 6.09719L328.299 4.82996ZM315.667 -4.06021C318.929 -7.89509 323.062 -10.6024 328.086 -12.183L327.602 -13.7219C322.301 -12.054 317.906 -9.18143 314.438 -5.10495L315.667 -4.06021ZM328.086 -12.183C333.097 -13.7597 338.883 -13.9885 345.468 -12.8274L345.75 -14.4161C338.973 -15.6111 332.916 -15.3936 327.602 -13.7219L328.086 -12.183ZM345.468 -12.8274C352.863 -11.5234 358.432 -8.9392 362.261 -5.13874L363.398 -6.28389C359.266 -10.3857 353.355 -13.0751 345.75 -14.4161L345.468 -12.8274ZM362.27 -5.12981C366.127 -1.41963 367.573 3.06258 366.626 8.41047L368.215 8.69065C369.254 2.82116 367.64 -2.20456 363.389 -6.29281L362.27 -5.12981ZM366.626 8.41047C366.184 10.9035 365.371 13.0173 364.203 14.771L365.546 15.6645C366.857 13.6962 367.741 11.3652 368.215 8.69065L366.626 8.41047ZM364.208 14.7631C363.021 16.5012 361.71 17.9174 360.279 19.023L361.266 20.299C362.848 19.0763 364.271 17.5303 365.541 15.6724L364.208 14.7631ZM360.278 19.0242C358.88 20.1102 357.065 21.3267 354.826 22.6738L355.658 24.0559C357.929 22.6891 359.802 21.4363 361.267 20.2978L360.278 19.0242ZM354.833 22.6696C352.346 24.1313 350.435 25.4628 349.131 26.6649L350.224 27.8506C351.406 26.7616 353.204 25.4978 355.65 24.0602L354.833 22.6696ZM349.145 26.6521C347.768 27.8626 346.915 29.4224 346.583 31.2938L348.172 31.574C348.444 30.0423 349.124 28.8181 350.21 27.8634L349.145 26.6521ZM347.519 30.6395L330.69 27.6722L330.409 29.261L347.237 32.2283L347.519 30.6395ZM334.684 54.1114C331.772 53.5979 329.578 52.2985 328.034 50.2359L326.742 51.2034C328.561 53.6333 331.138 55.1246 334.403 55.7002L334.684 54.1114ZM328.042 50.2466C326.497 48.1117 325.96 45.7914 326.413 43.2367L324.824 42.9565C324.294 45.9474 324.937 48.7092 326.734 51.1927L328.042 50.2466ZM326.413 43.2367C326.879 40.6059 328.15 38.6472 330.228 37.294L329.348 35.9424C326.871 37.5553 325.362 39.9156 324.824 42.9565L326.413 43.2367ZM330.217 37.3009C332.362 35.9523 334.898 35.5115 337.885 36.0382L338.167 34.4495C334.851 33.8649 331.896 34.3403 329.359 35.9355L330.217 37.3009ZM337.885 36.0382C340.873 36.565 343.104 37.8464 344.655 39.8467L345.931 38.8576C344.096 36.4915 341.482 35.0341 338.167 34.4495L337.885 36.0382ZM344.655 39.8467C346.202 41.8416 346.749 44.1183 346.285 46.7406L347.874 47.0208C348.414 43.9714 347.77 41.2291 345.931 38.8576L344.655 39.8467ZM346.285 46.7406C345.832 49.2954 344.531 51.2916 342.346 52.7689L343.25 54.1049C345.791 52.3863 347.344 50.0117 347.874 47.0208L346.285 46.7406ZM342.357 52.7616C340.202 54.1686 337.664 54.6369 334.684 54.1114L334.403 55.7002C337.726 56.2861 340.691 55.7751 343.239 54.1123L342.357 52.7616Z" fill="#271A58" mask="url(#path-7-outside-2_22_205)"/>
<rect x="0.405198" y="0.579161" width="166.875" height="222.834" rx="29.5" transform="matrix(0.984808 0.173648 -0.174411 0.984673 452.366 -73.4441)" fill="#F25050"/>
<rect x="0.405198" y="0.579161" width="166.875" height="222.834" rx="29.5" transform="matrix(0.984808 0.173648 -0.174411 0.984673 452.366 -73.4441)" stroke="#271A58"/>
<mask id="path-10-outside-3_22_205" maskUnits="userSpaceOnUse" x="478.594" y="10.563" width="68.6916" height="80.7944" fill="black">
<rect fill="white" x="478.594" y="10.563" width="68.6916" height="80.7944"/>
<path d="M505.579 59.3292C506.137 56.1782 507.288 53.7167 509.032 51.9445C510.787 50.1094 513.205 48.1964 516.288 46.2054C518.417 44.8262 520.023 43.6472 521.107 42.6684C522.201 41.6266 522.865 40.4441 523.1 39.1207C523.424 37.2931 522.892 35.7047 521.507 34.3556C520.195 32.9545 518.31 32.0373 515.852 31.6038C513.331 31.1593 510.924 31.3523 508.632 32.183C506.403 33.0247 504.469 34.4057 502.829 36.3261L490.081 26.28C493.447 22.3243 497.711 19.5343 502.873 17.9101C508.036 16.2859 513.957 16.0628 520.638 17.2408C528.139 18.5633 533.879 21.2001 537.858 25.1512C541.913 29.0505 543.443 33.8044 542.449 39.4131C541.992 41.9969 541.143 44.2193 539.904 46.0803C538.675 47.8783 537.308 49.3594 535.802 50.5235C534.37 51.6358 532.526 52.8704 530.271 54.2274C527.804 55.6771 525.95 56.9747 524.707 58.1203C523.475 59.2029 522.709 60.5949 522.407 62.2965L505.579 59.3292ZM509.573 85.7684C506.484 85.2238 504.099 83.8284 502.417 81.5822C500.746 79.273 500.156 76.732 500.648 73.9591C501.15 71.1233 502.54 68.9638 504.817 67.4808C507.158 66.0089 509.904 65.5507 513.055 66.1064C516.207 66.6621 518.629 68.0315 520.322 70.2147C522.015 72.3979 522.611 74.9074 522.108 77.7433C521.617 80.5161 520.19 82.7015 517.827 84.2995C515.476 85.8344 512.724 86.324 509.573 85.7684Z"/>
</mask>
<path d="M505.579 59.3292C506.137 56.1782 507.288 53.7167 509.032 51.9445C510.787 50.1094 513.205 48.1964 516.288 46.2054C518.417 44.8262 520.023 43.6472 521.107 42.6684C522.201 41.6266 522.865 40.4441 523.1 39.1207C523.424 37.2931 522.892 35.7047 521.507 34.3556C520.195 32.9545 518.31 32.0373 515.852 31.6038C513.331 31.1593 510.924 31.3523 508.632 32.183C506.403 33.0247 504.469 34.4057 502.829 36.3261L490.081 26.28C493.447 22.3243 497.711 19.5343 502.873 17.9101C508.036 16.2859 513.957 16.0628 520.638 17.2408C528.139 18.5633 533.879 21.2001 537.858 25.1512C541.913 29.0505 543.443 33.8044 542.449 39.4131C541.992 41.9969 541.143 44.2193 539.904 46.0803C538.675 47.8783 537.308 49.3594 535.802 50.5235C534.37 51.6358 532.526 52.8704 530.271 54.2274C527.804 55.6771 525.95 56.9747 524.707 58.1203C523.475 59.2029 522.709 60.5949 522.407 62.2965L505.579 59.3292ZM509.573 85.7684C506.484 85.2238 504.099 83.8284 502.417 81.5822C500.746 79.273 500.156 76.732 500.648 73.9591C501.15 71.1233 502.54 68.9638 504.817 67.4808C507.158 66.0089 509.904 65.5507 513.055 66.1064C516.207 66.6621 518.629 68.0315 520.322 70.2147C522.015 72.3979 522.611 74.9074 522.108 77.7433C521.617 80.5161 520.19 82.7015 517.827 84.2995C515.476 85.8344 512.724 86.324 509.573 85.7684Z" fill="white"/>
<path d="M505.579 59.3292L504.784 59.1891L504.644 59.9834L505.438 60.1235L505.579 59.3292ZM509.032 51.9445L509.607 52.5101L509.615 52.5018L509.032 51.9445ZM516.288 46.2054L516.725 46.8828L516.726 46.8823L516.288 46.2054ZM521.107 42.6684L521.647 43.2667L521.655 43.2597L521.663 43.2524L521.107 42.6684ZM521.507 34.3556L520.917 34.907L520.93 34.9207L520.943 34.9337L521.507 34.3556ZM508.632 32.183L508.358 31.4246L508.347 31.4284L508.632 32.183ZM502.829 36.3261L502.329 36.9597L502.938 37.4399L503.442 36.8496L502.829 36.3261ZM490.081 26.28L489.467 25.7576L488.924 26.3955L489.582 26.9136L490.081 26.28ZM502.873 17.9101L503.115 18.6795L503.115 18.6795L502.873 17.9101ZM537.858 25.1512L537.29 25.7239L537.299 25.7327L537.858 25.1512ZM539.904 46.0803L540.57 46.535L540.575 46.5271L539.904 46.0803ZM535.802 50.5235L535.309 49.8855L535.307 49.8867L535.802 50.5235ZM530.271 54.2274L530.68 54.9228L530.687 54.9184L530.271 54.2274ZM524.707 58.1203L525.239 58.726L525.246 58.7197L525.253 58.7132L524.707 58.1203ZM522.407 62.2965L522.266 63.0908L523.061 63.2309L523.202 62.4365L522.407 62.2965ZM502.417 81.5822L501.763 82.0554L501.771 82.0659L502.417 81.5822ZM504.817 67.4808L504.388 66.798L504.377 66.805L504.817 67.4808ZM520.322 70.2147L519.684 70.7092L519.684 70.7092L520.322 70.2147ZM517.827 84.2995L518.268 84.9749L518.279 84.9675L517.827 84.2995ZM506.373 59.4692C506.911 56.433 508.006 54.1364 509.607 52.51L508.457 51.3791C506.569 53.2969 505.363 55.9234 504.784 59.1891L506.373 59.4692ZM509.615 52.5018C511.311 50.7275 513.675 48.8533 516.725 46.8828L515.85 45.5279C512.736 47.5394 510.262 49.4913 508.449 51.3873L509.615 52.5018ZM516.726 46.8823C518.869 45.494 520.517 44.2879 521.647 43.2667L520.566 42.0701C519.529 43.0065 517.965 44.1583 515.849 45.5285L516.726 46.8823ZM521.663 43.2524C522.866 42.1073 523.626 40.7745 523.894 39.2607L522.305 38.9806C522.105 40.1136 521.536 41.146 520.55 42.0844L521.663 43.2524ZM523.894 39.2607C524.267 37.1571 523.637 35.3034 522.07 33.7775L520.943 34.9337C522.148 36.1061 522.58 37.4291 522.305 38.9806L523.894 39.2607ZM522.096 33.8041C520.633 32.2421 518.571 31.2641 515.992 30.8095L515.711 32.3982C518.049 32.8105 519.756 33.6669 520.917 34.907L522.096 33.8041ZM515.992 30.8095C513.34 30.3417 510.789 30.5434 508.358 31.4246L508.907 32.9413C511.059 32.1613 513.322 31.9769 515.711 32.3982L515.992 30.8095ZM508.347 31.4284C505.984 32.3211 503.938 33.7851 502.215 35.8026L503.442 36.8496C504.999 35.0263 506.823 33.7283 508.917 32.9375L508.347 31.4284ZM503.328 35.6925L490.581 25.6464L489.582 26.9136L502.329 36.9597L503.328 35.6925ZM490.696 26.8023C493.959 22.9675 498.091 20.2601 503.115 18.6795L502.632 17.1407C497.33 18.8085 492.935 21.6811 489.467 25.7576L490.696 26.8023ZM503.115 18.6795C508.126 17.1028 513.912 16.8741 520.498 18.0352L520.779 16.4464C514.002 15.2515 507.945 15.4689 502.632 17.1407L503.115 18.6795ZM520.498 18.0352C527.892 19.3391 533.462 21.9233 537.29 25.7238L538.427 24.5787C534.296 20.4769 528.385 17.7875 520.779 16.4464L520.498 18.0352ZM537.299 25.7327C541.156 29.4429 542.602 33.9251 541.655 39.273L543.244 39.5532C544.284 33.6837 542.669 28.658 538.418 24.5697L537.299 25.7327ZM541.655 39.273C541.213 41.766 540.4 43.8799 539.232 45.6336L540.575 46.5271C541.886 44.5587 542.77 42.2278 543.244 39.5532L541.655 39.273ZM539.237 45.6257C538.05 47.3638 536.739 48.7799 535.309 49.8855L536.295 51.1616C537.877 49.9389 539.3 48.3929 540.57 46.535L539.237 45.6257ZM535.307 49.8867C533.909 50.9728 532.094 52.1892 529.855 53.5364L530.687 54.9184C532.958 53.5516 534.831 52.2988 536.297 51.1604L535.307 49.8867ZM529.862 53.5321C527.375 54.9939 525.464 56.3253 524.16 57.5275L525.253 58.7132C526.435 57.6242 528.233 56.3603 530.68 54.9227L529.862 53.5321ZM524.174 57.5147C522.797 58.7251 521.944 60.285 521.613 62.1564L523.202 62.4365C523.473 60.9049 524.153 59.6807 525.239 58.726L524.174 57.5147ZM522.548 61.5021L505.719 58.5348L505.438 60.1235L522.266 63.0908L522.548 61.5021ZM509.713 84.974C506.801 84.4605 504.608 83.161 503.063 81.0985L501.771 82.0659C503.591 84.4958 506.167 85.9871 509.432 86.5627L509.713 84.974ZM503.071 81.1091C501.526 78.9743 500.99 76.654 501.442 74.0992L499.853 73.819C499.323 76.81 499.966 79.5717 501.763 82.0553L503.071 81.1091ZM501.442 74.0992C501.908 71.4684 503.179 69.5098 505.257 68.1566L504.377 66.805C501.9 68.4179 500.392 70.7781 499.853 73.819L501.442 74.0992ZM505.247 68.1635C507.391 66.8149 509.927 66.374 512.915 66.9008L513.196 65.312C509.881 64.7274 506.925 65.2028 504.388 66.7981L505.247 68.1635ZM512.915 66.9008C515.902 67.4275 518.133 68.709 519.684 70.7092L520.96 69.7201C519.125 67.354 516.511 65.8966 513.196 65.312L512.915 66.9008ZM519.684 70.7092C521.232 72.7042 521.778 74.9809 521.314 77.6032L522.903 77.8833C523.443 74.8339 522.799 72.0916 520.96 69.7201L519.684 70.7092ZM521.314 77.6032C520.861 80.1579 519.56 82.1541 517.376 83.6314L518.279 84.9675C520.82 83.2489 522.373 80.8743 522.903 77.8833L521.314 77.6032ZM517.387 83.6241C515.231 85.0312 512.693 85.4994 509.713 84.974L509.432 86.5627C512.755 87.1486 515.72 86.6376 518.268 84.9748L517.387 83.6241Z" fill="#271A58" mask="url(#path-10-outside-3_22_205)"/>
<rect x="0.405198" y="0.579161" width="166.875" height="222.834" rx="29.5" transform="matrix(0.984808 0.173648 -0.174411 0.984673 627.395 -42.5817)" fill="#009EE4"/>
<rect x="0.405198" y="0.579161" width="166.875" height="222.834" rx="29.5" transform="matrix(0.984808 0.173648 -0.174411 0.984673 627.395 -42.5817)" stroke="#271A58"/>
<rect x="0.405198" y="0.579161" width="166.875" height="222.834" rx="29.5" transform="matrix(0.984808 0.173648 -0.174411 0.984673 -113.272 63.9353)" fill="#1FA46C"/>
<rect x="0.405198" y="0.579161" width="166.875" height="222.834" rx="29.5" transform="matrix(0.984808 0.173648 -0.174411 0.984673 -113.272 63.9353)" stroke="#271A58"/>
<rect x="0.405198" y="0.579161" width="166.875" height="222.834" rx="29.5" transform="matrix(0.984808 0.173648 -0.174411 0.984673 61.7575 94.7979)" fill="#F25050"/>
<rect x="0.405198" y="0.579161" width="166.875" height="222.834" rx="29.5" transform="matrix(0.984808 0.173648 -0.174411 0.984673 61.7575 94.7979)" stroke="#271A58"/>
<mask id="path-15-outside-4_22_205" maskUnits="userSpaceOnUse" x="87.9854" y="178.805" width="68.6916" height="80.7944" fill="black">
<rect fill="white" x="87.9854" y="178.805" width="68.6916" height="80.7944"/>
<path d="M114.97 227.571C115.528 224.42 116.679 221.959 118.423 220.186C120.178 218.351 122.597 216.438 125.679 214.447C127.808 213.068 129.415 211.889 130.498 210.91C131.592 209.869 132.257 208.686 132.491 207.363C132.815 205.535 132.284 203.947 130.898 202.598C129.586 201.196 127.701 200.279 125.243 199.846C122.722 199.401 120.315 199.594 118.023 200.425C115.795 201.267 113.86 202.648 112.22 204.568L99.4727 194.522C102.838 190.566 107.102 187.776 112.265 186.152C117.427 184.528 123.349 184.305 130.03 185.483C137.53 186.805 143.27 189.442 147.25 193.393C151.304 197.292 152.834 202.046 151.841 207.655C151.383 210.239 150.535 212.461 149.295 214.322C148.067 216.12 146.699 217.601 145.193 218.765C143.761 219.878 141.918 221.112 139.662 222.469C137.196 223.919 135.341 225.217 134.098 226.362C132.866 227.445 132.1 228.837 131.798 230.538L114.97 227.571ZM118.964 254.01C115.876 253.466 113.49 252.07 111.808 249.824C110.138 247.515 109.548 244.974 110.039 242.201C110.541 239.365 111.931 237.206 114.209 235.723C116.549 234.251 119.295 233.793 122.447 234.348C125.598 234.904 128.02 236.273 129.714 238.457C131.407 240.64 132.002 243.149 131.5 245.985C131.009 248.758 129.582 250.943 127.219 252.541C124.867 254.076 122.115 254.566 118.964 254.01Z"/>
</mask>
<path d="M114.97 227.571C115.528 224.42 116.679 221.959 118.423 220.186C120.178 218.351 122.597 216.438 125.679 214.447C127.808 213.068 129.415 211.889 130.498 210.91C131.592 209.869 132.257 208.686 132.491 207.363C132.815 205.535 132.284 203.947 130.898 202.598C129.586 201.196 127.701 200.279 125.243 199.846C122.722 199.401 120.315 199.594 118.023 200.425C115.795 201.267 113.86 202.648 112.22 204.568L99.4727 194.522C102.838 190.566 107.102 187.776 112.265 186.152C117.427 184.528 123.349 184.305 130.03 185.483C137.53 186.805 143.27 189.442 147.25 193.393C151.304 197.292 152.834 202.046 151.841 207.655C151.383 210.239 150.535 212.461 149.295 214.322C148.067 216.12 146.699 217.601 145.193 218.765C143.761 219.878 141.918 221.112 139.662 222.469C137.196 223.919 135.341 225.217 134.098 226.362C132.866 227.445 132.1 228.837 131.798 230.538L114.97 227.571ZM118.964 254.01C115.876 253.466 113.49 252.07 111.808 249.824C110.138 247.515 109.548 244.974 110.039 242.201C110.541 239.365 111.931 237.206 114.209 235.723C116.549 234.251 119.295 233.793 122.447 234.348C125.598 234.904 128.02 236.273 129.714 238.457C131.407 240.64 132.002 243.149 131.5 245.985C131.009 248.758 129.582 250.943 127.219 252.541C124.867 254.076 122.115 254.566 118.964 254.01Z" fill="white"/>
<path d="M114.97 227.571L114.176 227.431L114.035 228.225L114.829 228.365L114.97 227.571ZM118.423 220.186L118.998 220.752L119.006 220.744L118.423 220.186ZM125.679 214.447L126.117 215.125L126.118 215.124L125.679 214.447ZM130.498 210.91L131.039 211.509L131.046 211.502L131.054 211.494L130.498 210.91ZM130.898 202.598L130.309 203.149L130.321 203.163L130.335 203.176L130.898 202.598ZM118.023 200.425L117.749 199.667L117.739 199.67L118.023 200.425ZM112.22 204.568L111.72 205.202L112.329 205.682L112.833 205.092L112.22 204.568ZM99.4727 194.522L98.8583 194L98.3155 194.637L98.9729 195.156L99.4727 194.522ZM112.265 186.152L112.506 186.921L112.506 186.921L112.265 186.152ZM147.25 193.393L146.681 193.966L146.69 193.975L147.25 193.393ZM149.295 214.322L149.961 214.777L149.966 214.769L149.295 214.322ZM145.193 218.765L144.7 218.127L144.698 218.129L145.193 218.765ZM139.662 222.469L140.071 223.165L140.078 223.16L139.662 222.469ZM134.098 226.362L134.631 226.968L134.638 226.962L134.645 226.955L134.098 226.362ZM131.798 230.538L131.658 231.333L132.452 231.473L132.593 230.678L131.798 230.538ZM111.808 249.824L111.155 250.297L111.162 250.308L111.808 249.824ZM114.209 235.723L113.779 235.04L113.769 235.047L114.209 235.723ZM129.714 238.457L129.076 238.951L129.076 238.951L129.714 238.457ZM127.219 252.541L127.66 253.217L127.67 253.209L127.219 252.541ZM115.765 227.711C116.302 224.675 117.398 222.378 118.998 220.752L117.848 219.621C115.961 221.539 114.754 224.165 114.176 227.431L115.765 227.711ZM119.006 220.744C120.703 218.969 123.066 217.095 126.117 215.125L125.242 213.77C122.127 215.781 119.653 217.733 117.84 219.629L119.006 220.744ZM126.118 215.124C128.261 213.736 129.908 212.53 131.039 211.509L129.957 210.312C128.921 211.248 127.356 212.4 125.241 213.77L126.118 215.124ZM131.054 211.494C132.257 210.349 133.018 209.016 133.286 207.503L131.697 207.223C131.496 208.356 130.928 209.388 129.942 210.326L131.054 211.494ZM133.286 207.503C133.658 205.399 133.029 203.545 131.461 202.019L130.335 203.176C131.539 204.348 131.972 205.671 131.697 207.223L133.286 207.503ZM131.487 202.046C130.025 200.484 127.962 199.506 125.384 199.051L125.102 200.64C127.44 201.052 129.148 201.909 130.309 203.149L131.487 202.046ZM125.384 199.051C122.731 198.584 120.181 198.785 117.749 199.667L118.298 201.183C120.45 200.403 122.713 200.219 125.102 200.64L125.384 199.051ZM117.739 199.67C115.375 200.563 113.329 202.027 111.606 204.045L112.833 205.092C114.391 203.268 116.214 201.97 118.308 201.179L117.739 199.67ZM112.72 203.934L99.9725 193.888L98.9729 195.156L111.72 205.202L112.72 203.934ZM100.087 195.044C103.35 191.209 107.482 188.502 112.506 186.921L112.023 185.383C106.722 187.05 102.327 189.923 98.8583 194L100.087 195.044ZM112.506 186.921C117.518 185.345 123.304 185.116 129.889 186.277L130.17 184.688C123.393 183.493 117.336 183.711 112.023 185.383L112.506 186.921ZM129.889 186.277C137.284 187.581 142.853 190.165 146.681 193.966L147.819 192.821C143.687 188.719 137.776 186.029 130.17 184.688L129.889 186.277ZM146.69 193.975C150.548 197.685 151.994 202.167 151.046 207.515L152.635 207.795C153.675 201.926 152.06 196.9 147.809 192.812L146.69 193.975ZM151.046 207.515C150.605 210.008 149.792 212.122 148.623 213.876L149.966 214.769C151.277 212.801 152.162 210.47 152.635 207.795L151.046 207.515ZM148.629 213.868C147.441 215.606 146.13 217.022 144.7 218.127L145.686 219.404C147.268 218.181 148.692 216.635 149.961 214.777L148.629 213.868ZM144.698 218.129C143.3 219.215 141.486 220.431 139.247 221.778L140.078 223.16C142.35 221.794 144.222 220.541 145.688 219.402L144.698 218.129ZM139.254 221.774C136.767 223.236 134.856 224.567 133.551 225.769L134.645 226.955C135.826 225.866 137.625 224.602 140.071 223.165L139.254 221.774ZM133.566 225.757C132.188 226.967 131.335 228.527 131.004 230.398L132.593 230.678C132.864 229.147 133.544 227.923 134.631 226.968L133.566 225.757ZM131.939 229.744L115.111 226.777L114.829 228.365L131.658 231.333L131.939 229.744ZM119.105 253.216C116.193 252.702 113.999 251.403 112.455 249.34L111.162 250.308C112.982 252.738 115.559 254.229 118.823 254.805L119.105 253.216ZM112.462 249.351C110.918 247.216 110.381 244.896 110.833 242.341L109.244 242.061C108.715 245.052 109.358 247.814 111.155 250.297L112.462 249.351ZM110.833 242.341C111.299 239.71 112.571 237.752 114.649 236.399L113.769 235.047C111.292 236.66 109.783 239.02 109.244 242.061L110.833 242.341ZM114.638 236.405C116.782 235.057 119.319 234.616 122.306 235.143L122.587 233.554C119.272 232.969 116.316 233.445 113.779 235.04L114.638 236.405ZM122.306 235.143C125.293 235.669 127.524 236.951 129.076 238.951L130.351 237.962C128.516 235.596 125.903 234.139 122.587 233.554L122.306 235.143ZM129.076 238.951C130.623 240.946 131.17 243.223 130.705 245.845L132.294 246.125C132.834 243.076 132.19 240.334 130.351 237.962L129.076 238.951ZM130.705 245.845C130.253 248.4 128.951 250.396 126.767 251.873L127.67 253.209C130.212 251.491 131.765 249.116 132.294 246.125L130.705 245.845ZM126.778 251.866C124.622 253.273 122.085 253.741 119.105 253.216L118.823 254.805C122.146 255.391 125.112 254.88 127.659 253.217L126.778 251.866Z" fill="#271A58" mask="url(#path-15-outside-4_22_205)"/>
<rect x="0.405198" y="0.579161" width="166.875" height="222.834" rx="29.5" transform="matrix(0.984808 0.173648 -0.174411 0.984673 236.787 125.66)" fill="#009EE4"/>
<rect x="0.405198" y="0.579161" width="166.875" height="222.834" rx="29.5" transform="matrix(0.984808 0.173648 -0.174411 0.984673 236.787 125.66)" stroke="#271A58"/>
<mask id="path-18-outside-5_22_205" maskUnits="userSpaceOnUse" x="269.565" y="217.023" width="56.5762" height="66.2572" fill="black">
<rect fill="white" x="269.565" y="217.023" width="56.5762" height="66.2572"/>
<path d="M291.886 256.969C292.336 254.427 293.264 252.442 294.671 251.012C296.087 249.531 298.038 247.988 300.525 246.382C302.243 245.269 303.539 244.318 304.413 243.528C305.296 242.688 305.832 241.734 306.021 240.666C306.282 239.192 305.853 237.91 304.735 236.822C303.677 235.692 302.156 234.952 300.173 234.602C298.139 234.243 296.198 234.399 294.349 235.069C292.551 235.748 290.99 236.863 289.667 238.412L279.383 230.307C282.098 227.116 285.538 224.865 289.703 223.555C293.868 222.244 298.645 222.064 304.035 223.015C310.086 224.082 314.717 226.209 317.927 229.396C321.198 232.542 322.432 236.377 321.631 240.902C321.262 242.987 320.577 244.78 319.577 246.281C318.586 247.732 317.483 248.926 316.268 249.866C315.113 250.763 313.625 251.759 311.806 252.854C309.816 254.023 308.32 255.07 307.317 255.994C306.323 256.868 305.705 257.991 305.462 259.363L291.886 256.969ZM295.108 278.299C292.616 277.86 290.692 276.734 289.335 274.922C287.987 273.059 287.511 271.009 287.907 268.772C288.313 266.484 289.434 264.742 291.271 263.546C293.16 262.358 295.375 261.989 297.917 262.437C300.46 262.885 302.414 263.99 303.78 265.751C305.146 267.513 305.626 269.537 305.221 271.825C304.825 274.062 303.673 275.825 301.767 277.114C299.87 278.353 297.65 278.748 295.108 278.299Z"/>
</mask>
<path d="M291.886 256.969C292.336 254.427 293.264 252.442 294.671 251.012C296.087 249.531 298.038 247.988 300.525 246.382C302.243 245.269 303.539 244.318 304.413 243.528C305.296 242.688 305.832 241.734 306.021 240.666C306.282 239.192 305.853 237.91 304.735 236.822C303.677 235.692 302.156 234.952 300.173 234.602C298.139 234.243 296.198 234.399 294.349 235.069C292.551 235.748 290.99 236.863 289.667 238.412L279.383 230.307C282.098 227.116 285.538 224.865 289.703 223.555C293.868 222.244 298.645 222.064 304.035 223.015C310.086 224.082 314.717 226.209 317.927 229.396C321.198 232.542 322.432 236.377 321.631 240.902C321.262 242.987 320.577 244.78 319.577 246.281C318.586 247.732 317.483 248.926 316.268 249.866C315.113 250.763 313.625 251.759 311.806 252.854C309.816 254.023 308.32 255.07 307.317 255.994C306.323 256.868 305.705 257.991 305.462 259.363L291.886 256.969ZM295.108 278.299C292.616 277.86 290.692 276.734 289.335 274.922C287.987 273.059 287.511 271.009 287.907 268.772C288.313 266.484 289.434 264.742 291.271 263.546C293.16 262.358 295.375 261.989 297.917 262.437C300.46 262.885 302.414 263.99 303.78 265.751C305.146 267.513 305.626 269.537 305.221 271.825C304.825 274.062 303.673 275.825 301.767 277.114C299.87 278.353 297.65 278.748 295.108 278.299Z" fill="white"/>
<path d="M291.886 256.969L291.091 256.829L290.95 257.624L291.745 257.764L291.886 256.969ZM294.671 251.012L295.246 251.577L295.254 251.569L294.671 251.012ZM300.525 246.382L300.963 247.059L300.964 247.059L300.525 246.382ZM304.413 243.528L304.953 244.127L304.961 244.12L304.969 244.112L304.413 243.528ZM304.735 236.822L304.146 237.374L304.159 237.387L304.172 237.4L304.735 236.822ZM294.349 235.069L294.074 234.311L294.064 234.315L294.349 235.069ZM289.667 238.412L289.167 239.045L289.776 239.526L290.28 238.935L289.667 238.412ZM279.383 230.307L278.769 229.785L278.226 230.423L278.883 230.941L279.383 230.307ZM289.703 223.555L289.945 224.324L289.945 224.324L289.703 223.555ZM317.927 229.396L317.358 229.969L317.368 229.978L317.927 229.396ZM319.577 246.281L320.243 246.736L320.249 246.728L319.577 246.281ZM316.268 249.866L315.775 249.228L315.773 249.229L316.268 249.866ZM311.806 252.854L312.215 253.549L312.222 253.545L311.806 252.854ZM307.317 255.994L307.85 256.6L307.857 256.594L307.864 256.587L307.317 255.994ZM305.462 259.363L305.321 260.158L306.116 260.298L306.256 259.503L305.462 259.363ZM289.335 274.922L288.681 275.395L288.689 275.406L289.335 274.922ZM291.271 263.546L290.842 262.863L290.831 262.87L291.271 263.546ZM303.78 265.751L303.142 266.246L303.142 266.246L303.78 265.751ZM301.767 277.114L302.208 277.79L302.219 277.782L301.767 277.114ZM292.68 257.11C293.11 254.682 293.983 252.861 295.246 251.577L294.096 250.446C292.546 252.022 291.562 254.173 291.091 256.829L292.68 257.11ZM295.254 251.569C296.612 250.15 298.508 248.645 300.963 247.059L300.088 245.704C297.569 247.331 295.562 248.913 294.088 250.455L295.254 251.569ZM300.964 247.059C302.695 245.937 304.033 244.959 304.953 244.127L303.872 242.93C303.045 243.677 301.791 244.601 300.087 245.705L300.964 247.059ZM304.969 244.112C305.96 243.169 306.592 242.064 306.815 240.806L305.226 240.526C305.071 241.404 304.631 242.207 303.857 242.944L304.969 244.112ZM306.815 240.806C307.125 239.056 306.598 237.509 305.298 236.244L304.172 237.4C305.109 238.312 305.439 239.328 305.226 240.526L306.815 240.806ZM305.325 236.271C304.116 234.979 302.417 234.179 300.314 233.808L300.033 235.396C301.896 235.725 303.239 236.404 304.146 237.374L305.325 236.271ZM300.314 233.808C298.148 233.426 296.063 233.59 294.074 234.311L294.623 235.828C296.333 235.208 298.131 235.061 300.033 235.396L300.314 233.808ZM294.064 234.315C292.131 235.045 290.459 236.242 289.053 237.888L290.28 238.935C291.521 237.483 292.97 236.452 294.634 235.824L294.064 234.315ZM290.167 237.778L279.883 229.673L278.883 230.941L289.167 239.045L290.167 237.778ZM279.998 230.829C282.61 227.759 285.918 225.591 289.945 224.324L289.461 222.785C285.158 224.139 281.587 226.473 278.769 229.785L279.998 230.829ZM289.945 224.324C293.958 223.061 298.6 222.876 303.894 223.809L304.176 222.22C298.69 221.253 293.777 221.427 289.461 222.785L289.945 224.324ZM303.894 223.809C309.84 224.857 314.3 226.932 317.359 229.969L318.496 228.824C315.134 225.486 310.332 223.306 304.176 222.22L303.894 223.809ZM317.368 229.978C320.442 232.935 321.592 236.498 320.837 240.762L322.426 241.042C323.273 236.257 321.954 232.15 318.487 228.815L317.368 229.978ZM320.837 240.762C320.483 242.756 319.834 244.44 318.906 245.834L320.249 246.728C321.32 245.119 322.04 243.218 322.426 241.042L320.837 240.762ZM318.911 245.826C317.961 247.217 316.914 248.347 315.775 249.228L316.761 250.504C318.052 249.506 319.211 248.246 320.243 246.736L318.911 245.826ZM315.773 249.229C314.652 250.1 313.193 251.078 311.39 252.163L312.222 253.545C314.058 252.44 315.574 251.426 316.763 250.502L315.773 249.229ZM311.398 252.158C309.387 253.34 307.834 254.421 306.77 255.401L307.864 256.587C308.805 255.72 310.245 254.706 312.215 253.549L311.398 252.158ZM306.785 255.389C305.645 256.39 304.941 257.681 304.667 259.223L306.256 259.503C306.469 258.301 307.001 257.345 307.85 256.6L306.785 255.389ZM305.603 258.569L292.026 256.175L291.745 257.764L305.321 260.158L305.603 258.569ZM295.248 277.505C292.933 277.097 291.2 276.067 289.981 274.438L288.689 275.406C290.183 277.402 292.299 278.623 294.967 279.094L295.248 277.505ZM289.989 274.449C288.767 272.76 288.344 270.931 288.702 268.912L287.113 268.632C286.678 271.087 287.207 273.358 288.681 275.395L289.989 274.449ZM288.702 268.912C289.071 266.83 290.073 265.288 291.711 264.222L290.831 262.87C288.794 264.196 287.554 266.139 287.113 268.632L288.702 268.912ZM291.701 264.229C293.393 263.164 295.398 262.812 297.777 263.231L298.058 261.643C295.352 261.165 292.926 261.552 290.842 262.863L291.701 264.229ZM297.777 263.231C300.155 263.651 301.918 264.668 303.142 266.246L304.418 265.257C302.91 263.313 300.764 262.12 298.058 261.643L297.777 263.231ZM303.142 266.246C304.362 267.819 304.794 269.611 304.426 271.685L306.015 271.965C306.459 269.464 305.93 267.206 304.418 265.257L303.142 266.246ZM304.426 271.685C304.069 273.704 303.043 275.278 301.315 276.446L302.219 277.782C304.304 276.372 305.581 274.42 306.015 271.965L304.426 271.685ZM301.326 276.439C299.625 277.549 297.619 277.923 295.248 277.505L294.967 279.094C297.681 279.572 300.115 279.156 302.208 277.79L301.326 276.439Z" fill="#271A58" mask="url(#path-18-outside-5_22_205)"/>
<rect x="0.405198" y="0.579161" width="166.875" height="222.834" rx="29.5" transform="matrix(0.984808 0.173648 -0.174411 0.984673 411.817 156.522)" fill="#99D100"/>
<rect x="0.405198" y="0.579161" width="166.875" height="222.834" rx="29.5" transform="matrix(0.984808 0.173648 -0.174411 0.984673 411.817 156.522)" stroke="#271A58"/>
<mask id="path-21-outside-6_22_205" maskUnits="userSpaceOnUse" x="438.044" y="240.53" width="68.6916" height="80.7944" fill="black">
<rect fill="white" x="438.044" y="240.53" width="68.6916" height="80.7944"/>
<path d="M465.029 289.296C465.587 286.145 466.738 283.683 468.482 281.911C470.237 280.076 472.656 278.163 475.738 276.172C477.867 274.793 479.474 273.614 480.557 272.635C481.651 271.593 482.316 270.411 482.55 269.087C482.874 267.26 482.343 265.671 480.957 264.322C479.645 262.921 477.76 262.004 475.302 261.57C472.781 261.126 470.375 261.319 468.083 262.15C465.854 262.991 463.919 264.372 462.279 266.293L449.532 256.247C452.897 252.291 457.161 249.501 462.324 247.877C467.486 246.252 473.408 246.029 480.089 247.207C487.589 248.53 493.329 251.167 497.309 255.118C501.363 259.017 502.893 263.771 501.9 269.38C501.442 271.963 500.594 274.186 499.354 276.047C498.126 277.845 496.758 279.326 495.252 280.49C493.82 281.602 491.977 282.837 489.721 284.194C487.255 285.644 485.4 286.941 484.157 288.087C482.925 289.169 482.159 290.561 481.858 292.263L465.029 289.296ZM469.023 315.735C465.935 315.19 463.55 313.795 461.868 311.549C460.197 309.24 459.607 306.699 460.098 303.926C460.6 301.09 461.99 298.93 464.268 297.447C466.608 295.975 469.354 295.517 472.506 296.073C475.657 296.629 478.079 297.998 479.773 300.181C481.466 302.364 482.061 304.874 481.559 307.71C481.068 310.483 479.641 312.668 477.278 314.266C474.926 315.801 472.174 316.291 469.023 315.735Z"/>
</mask>
<path d="M465.029 289.296C465.587 286.145 466.738 283.683 468.482 281.911C470.237 280.076 472.656 278.163 475.738 276.172C477.867 274.793 479.474 273.614 480.557 272.635C481.651 271.593 482.316 270.411 482.55 269.087C482.874 267.26 482.343 265.671 480.957 264.322C479.645 262.921 477.76 262.004 475.302 261.57C472.781 261.126 470.375 261.319 468.083 262.15C465.854 262.991 463.919 264.372 462.279 266.293L449.532 256.247C452.897 252.291 457.161 249.501 462.324 247.877C467.486 246.252 473.408 246.029 480.089 247.207C487.589 248.53 493.329 251.167 497.309 255.118C501.363 259.017 502.893 263.771 501.9 269.38C501.442 271.963 500.594 274.186 499.354 276.047C498.126 277.845 496.758 279.326 495.252 280.49C493.82 281.602 491.977 282.837 489.721 284.194C487.255 285.644 485.4 286.941 484.157 288.087C482.925 289.169 482.159 290.561 481.858 292.263L465.029 289.296ZM469.023 315.735C465.935 315.19 463.55 313.795 461.868 311.549C460.197 309.24 459.607 306.699 460.098 303.926C460.6 301.09 461.99 298.93 464.268 297.447C466.608 295.975 469.354 295.517 472.506 296.073C475.657 296.629 478.079 297.998 479.773 300.181C481.466 302.364 482.061 304.874 481.559 307.71C481.068 310.483 479.641 312.668 477.278 314.266C474.926 315.801 472.174 316.291 469.023 315.735Z" fill="white"/>
<path d="M465.029 289.296L464.235 289.156L464.094 289.95L464.888 290.09L465.029 289.296ZM468.482 281.911L469.057 282.477L469.065 282.468L468.482 281.911ZM475.738 276.172L476.176 276.849L476.177 276.849L475.738 276.172ZM480.557 272.635L481.098 273.233L481.106 273.226L481.113 273.219L480.557 272.635ZM480.957 264.322L480.368 264.874L480.38 264.887L480.394 264.9L480.957 264.322ZM468.083 262.15L467.808 261.391L467.798 261.395L468.083 262.15ZM462.279 266.293L461.779 266.926L462.388 267.406L462.892 266.816L462.279 266.293ZM449.532 256.247L448.917 255.724L448.375 256.362L449.032 256.88L449.532 256.247ZM462.324 247.877L462.565 248.646L462.565 248.646L462.324 247.877ZM497.309 255.118L496.74 255.69L496.749 255.699L497.309 255.118ZM499.354 276.047L500.02 276.502L500.025 276.494L499.354 276.047ZM495.252 280.49L494.759 279.852L494.757 279.853L495.252 280.49ZM489.721 284.194L490.13 284.889L490.137 284.885L489.721 284.194ZM484.157 288.087L484.69 288.693L484.697 288.686L484.704 288.68L484.157 288.087ZM481.858 292.263L481.717 293.057L482.511 293.197L482.652 292.403L481.858 292.263ZM461.868 311.549L461.214 312.022L461.222 312.032L461.868 311.549ZM464.268 297.447L463.838 296.765L463.828 296.772L464.268 297.447ZM479.773 300.181L479.135 300.676L479.135 300.676L479.773 300.181ZM477.278 314.266L477.719 314.941L477.73 314.934L477.278 314.266ZM465.824 289.436C466.361 286.4 467.457 284.103 469.057 282.477L467.907 281.346C466.02 283.263 464.813 285.89 464.235 289.156L465.824 289.436ZM469.065 282.468C470.762 280.694 473.125 278.82 476.176 276.849L475.301 275.494C472.186 277.506 469.712 279.458 467.899 281.354L469.065 282.468ZM476.177 276.849C478.32 275.461 479.967 274.254 481.098 273.233L480.016 272.037C478.98 272.973 477.415 274.125 475.3 275.495L476.177 276.849ZM481.113 273.219C482.316 272.074 483.077 270.741 483.345 269.227L481.756 268.947C481.555 270.08 480.987 271.113 480.001 272.051L481.113 273.219ZM483.345 269.227C483.717 267.124 483.088 265.27 481.52 263.744L480.394 264.9C481.598 266.073 482.031 267.396 481.756 268.947L483.345 269.227ZM481.546 263.771C480.084 262.209 478.021 261.231 475.443 260.776L475.162 262.365C477.499 262.777 479.207 263.633 480.368 264.874L481.546 263.771ZM475.443 260.776C472.79 260.308 470.24 260.51 467.808 261.391L468.357 262.908C470.509 262.128 472.772 261.943 475.162 262.365L475.443 260.776ZM467.798 261.395C465.434 262.288 463.389 263.752 461.666 265.769L462.892 266.816C464.45 264.993 466.273 263.695 468.367 262.904L467.798 261.395ZM462.779 265.659L450.032 255.613L449.032 256.88L461.779 266.926L462.779 265.659ZM450.146 256.769C453.409 252.934 457.542 250.227 462.565 248.646L462.082 247.107C456.781 248.775 452.386 251.648 448.917 255.724L450.146 256.769ZM462.565 248.646C467.577 247.069 473.363 246.841 479.948 248.002L480.229 246.413C473.453 245.218 467.395 245.435 462.082 247.107L462.565 248.646ZM479.948 248.002C487.343 249.306 492.912 251.89 496.74 255.69L497.878 254.545C493.746 250.443 487.835 247.754 480.229 246.413L479.948 248.002ZM496.749 255.699C500.607 259.409 502.053 263.892 501.105 269.24L502.694 269.52C503.734 263.65 502.119 258.625 497.869 254.536L496.749 255.699ZM501.105 269.24C500.664 271.733 499.851 273.846 498.683 275.6L500.025 276.494C501.337 274.525 502.221 272.194 502.694 269.52L501.105 269.24ZM498.688 275.592C497.5 277.33 496.189 278.746 494.759 279.852L495.745 281.128C497.327 279.905 498.751 278.359 500.02 276.502L498.688 275.592ZM494.757 279.853C493.359 280.939 491.545 282.156 489.306 283.503L490.137 284.885C492.409 283.518 494.281 282.265 495.747 281.127L494.757 279.853ZM489.313 283.499C486.826 284.96 484.915 286.292 483.61 287.494L484.704 288.68C485.885 287.591 487.684 286.327 490.13 284.889L489.313 283.499ZM483.625 287.481C482.248 288.692 481.395 290.252 481.063 292.123L482.652 292.403C482.923 290.871 483.603 289.647 484.69 288.693L483.625 287.481ZM481.998 291.469L465.17 288.501L464.888 290.09L481.717 293.057L481.998 291.469ZM469.164 314.941C466.252 314.427 464.058 313.128 462.514 311.065L461.222 312.032C463.041 314.462 465.618 315.954 468.882 316.529L469.164 314.941ZM462.521 311.076C460.977 308.941 460.44 306.621 460.892 304.066L459.303 303.786C458.774 306.777 459.417 309.538 461.214 312.022L462.521 311.076ZM460.892 304.066C461.358 301.435 462.63 299.476 464.708 298.123L463.828 296.772C461.351 298.384 459.842 300.745 459.303 303.786L460.892 304.066ZM464.697 298.13C466.842 296.781 469.378 296.341 472.365 296.867L472.646 295.279C469.331 294.694 466.375 295.169 463.839 296.765L464.697 298.13ZM472.365 296.867C475.352 297.394 477.584 298.676 479.135 300.676L480.41 299.687C478.575 297.321 475.962 295.863 472.646 295.279L472.365 296.867ZM479.135 300.676C480.682 302.671 481.229 304.947 480.764 307.57L482.353 307.85C482.894 304.8 482.25 302.058 480.41 299.687L479.135 300.676ZM480.764 307.57C480.312 310.124 479.011 312.121 476.826 313.598L477.73 314.934C480.271 313.215 481.824 310.841 482.353 307.85L480.764 307.57ZM476.837 313.591C474.681 314.998 472.144 315.466 469.164 314.941L468.882 316.529C472.205 317.115 475.171 316.604 477.719 314.941L476.837 313.591Z" fill="#271A58" mask="url(#path-21-outside-6_22_205)"/>
<rect x="0.405198" y="0.579161" width="166.875" height="222.834" rx="29.5" transform="matrix(0.984808 0.173648 -0.174411 0.984673 586.846 187.385)" fill="#FFC700"/>
<rect x="0.405198" y="0.579161" width="166.875" height="222.834" rx="29.5" transform="matrix(0.984808 0.173648 -0.174411 0.984673 586.846 187.385)" stroke="#271A58"/>
<rect x="0.405198" y="0.579161" width="166.875" height="222.834" rx="29.5" transform="matrix(0.984808 0.173648 -0.174411 0.984673 -153.821 293.902)" fill="#009EE4"/>
<rect x="0.405198" y="0.579161" width="166.875" height="222.834" rx="29.5" transform="matrix(0.984808 0.173648 -0.174411 0.984673 -153.821 293.902)" stroke="#271A58"/>
<rect x="0.405198" y="0.579161" width="166.875" height="222.834" rx="29.5" transform="matrix(0.984808 0.173648 -0.174411 0.984673 21.2085 324.765)" fill="#99D100"/>
<rect x="0.405198" y="0.579161" width="166.875" height="222.834" rx="29.5" transform="matrix(0.984808 0.173648 -0.174411 0.984673 21.2085 324.765)" stroke="#271A58"/>
<mask id="path-26-outside-7_22_205" maskUnits="userSpaceOnUse" x="47.4364" y="408.772" width="68.6916" height="80.7944" fill="black">
<rect fill="white" x="47.4364" y="408.772" width="68.6916" height="80.7944"/>
<path d="M74.4212 457.538C74.9793 454.387 76.1302 451.926 77.874 450.154C79.629 448.318 82.0477 446.405 85.1302 444.414C87.2594 443.035 88.8656 441.856 89.949 440.877C91.0434 439.836 91.7079 438.653 91.9423 437.33C92.266 435.502 91.7349 433.914 90.3489 432.565C89.0372 431.163 87.1523 430.246 84.6942 429.813C82.1731 429.368 79.7665 429.561 77.4745 430.392C75.2456 431.234 73.311 432.615 71.671 434.535L58.9238 424.489C62.2893 420.533 66.5532 417.743 71.7156 416.119C76.878 414.495 82.7997 414.272 89.4806 415.45C96.9809 416.772 102.721 419.409 106.701 423.36C110.755 427.259 112.285 432.013 111.292 437.622C110.834 440.206 109.986 442.428 108.746 444.289C107.518 446.087 106.15 447.568 104.644 448.733C103.212 449.845 101.369 451.079 99.1134 452.436C96.6468 453.886 94.792 455.184 93.5492 456.329C92.3175 457.412 91.5509 458.804 91.2495 460.505L74.4212 457.538ZM78.4151 483.977C75.3267 483.433 72.9415 482.037 71.2595 479.791C69.5887 477.482 68.9988 474.941 69.4899 472.168C69.9923 469.332 71.3822 467.173 73.6597 465.69C76.0003 464.218 78.7463 463.76 81.8977 464.315C85.0491 464.871 87.4714 466.24 89.1646 468.424C90.8577 470.607 91.4532 473.116 90.9509 475.952C90.4597 478.725 89.0327 480.91 86.6698 482.508C84.318 484.043 81.5665 484.533 78.4151 483.977Z"/>
</mask>
<path d="M74.4212 457.538C74.9793 454.387 76.1302 451.926 77.874 450.154C79.629 448.318 82.0477 446.405 85.1302 444.414C87.2594 443.035 88.8656 441.856 89.949 440.877C91.0434 439.836 91.7079 438.653 91.9423 437.33C92.266 435.502 91.7349 433.914 90.3489 432.565C89.0372 431.163 87.1523 430.246 84.6942 429.813C82.1731 429.368 79.7665 429.561 77.4745 430.392C75.2456 431.234 73.311 432.615 71.671 434.535L58.9238 424.489C62.2893 420.533 66.5532 417.743 71.7156 416.119C76.878 414.495 82.7997 414.272 89.4806 415.45C96.9809 416.772 102.721 419.409 106.701 423.36C110.755 427.259 112.285 432.013 111.292 437.622C110.834 440.206 109.986 442.428 108.746 444.289C107.518 446.087 106.15 447.568 104.644 448.733C103.212 449.845 101.369 451.079 99.1134 452.436C96.6468 453.886 94.792 455.184 93.5492 456.329C92.3175 457.412 91.5509 458.804 91.2495 460.505L74.4212 457.538ZM78.4151 483.977C75.3267 483.433 72.9415 482.037 71.2595 479.791C69.5887 477.482 68.9988 474.941 69.4899 472.168C69.9923 469.332 71.3822 467.173 73.6597 465.69C76.0003 464.218 78.7463 463.76 81.8977 464.315C85.0491 464.871 87.4714 466.24 89.1646 468.424C90.8577 470.607 91.4532 473.116 90.9509 475.952C90.4597 478.725 89.0327 480.91 86.6698 482.508C84.318 484.043 81.5665 484.533 78.4151 483.977Z" fill="white"/>
<path d="M74.4212 457.538L73.6267 457.398L73.486 458.192L74.2804 458.333L74.4212 457.538ZM77.874 450.154L78.4491 450.719L78.457 450.711L77.874 450.154ZM85.1302 444.414L85.5677 445.092L85.5686 445.091L85.1302 444.414ZM89.949 440.877L90.4897 441.476L90.4975 441.469L90.5051 441.461L89.949 440.877ZM90.3489 432.565L89.7597 433.116L89.7724 433.13L89.7858 433.143L90.3489 432.565ZM77.4745 430.392L77.2 429.634L77.1899 429.637L77.4745 430.392ZM71.671 434.535L71.1712 435.169L71.7804 435.649L72.2844 435.059L71.671 434.535ZM58.9238 424.489L58.3093 423.967L57.7666 424.604L58.424 425.123L58.9238 424.489ZM71.7156 416.119L71.9573 416.889L71.9573 416.889L71.7156 416.119ZM106.701 423.36L106.132 423.933L106.141 423.942L106.701 423.36ZM108.746 444.289L109.412 444.744L109.417 444.736L108.746 444.289ZM104.644 448.733L104.151 448.095L104.149 448.096L104.644 448.733ZM99.1134 452.436L99.522 453.132L99.5291 453.127L99.1134 452.436ZM93.5492 456.329L94.0817 456.935L94.0888 456.929L94.0958 456.922L93.5492 456.329ZM91.2495 460.505L91.1088 461.3L91.9033 461.44L92.044 460.646L91.2495 460.505ZM71.2595 479.791L70.6056 480.264L70.6135 480.275L71.2595 479.791ZM73.6597 465.69L73.2304 465.007L73.2197 465.014L73.6597 465.69ZM89.1646 468.424L88.5268 468.918L88.5268 468.918L89.1646 468.424ZM86.6698 482.508L87.1106 483.184L87.1215 483.176L86.6698 482.508ZM75.2156 457.678C75.7534 454.642 76.8486 452.345 78.449 450.719L77.299 449.588C75.4118 451.506 74.2051 454.132 73.6267 457.398L75.2156 457.678ZM78.457 450.711C80.1538 448.936 82.517 447.062 85.5677 445.092L84.6927 443.737C81.5785 445.748 79.1042 447.7 77.291 449.596L78.457 450.711ZM85.5686 445.091C87.7117 443.703 89.3595 442.497 90.4897 441.476L89.4082 440.279C88.3718 441.215 86.8071 442.367 84.6918 443.738L85.5686 445.091ZM90.5051 441.461C91.7082 440.316 92.4686 438.983 92.7368 437.47L91.1478 437.19C90.9471 438.323 90.3787 439.355 89.3928 440.293L90.5051 441.461ZM92.7368 437.47C93.1094 435.366 92.4796 433.512 90.912 431.986L89.7858 433.143C90.9901 434.315 91.4226 435.638 91.1478 437.19L92.7368 437.47ZM90.9382 432.013C89.4757 430.451 87.4132 429.473 84.8349 429.018L84.5535 430.607C86.8913 431.019 88.5986 431.876 89.7597 433.116L90.9382 432.013ZM84.8349 429.018C82.182 428.551 79.6317 428.752 77.2001 429.634L77.749 431.15C79.9013 430.37 82.1642 430.186 84.5535 430.607L84.8349 429.018ZM77.1899 429.637C74.826 430.53 72.7805 431.994 71.0575 434.012L72.2844 435.059C73.8416 433.235 75.6652 431.937 77.7592 431.147L77.1899 429.637ZM72.1708 433.901L59.4236 423.855L58.424 425.123L71.1712 435.169L72.1708 433.901ZM59.5382 425.011C62.8009 421.176 66.9335 418.469 71.9573 416.889L71.4739 415.35C66.1729 417.018 61.7776 419.89 58.3093 423.967L59.5382 425.011ZM71.9573 416.889C76.9686 415.312 82.7549 415.083 89.3399 416.244L89.6213 414.655C82.8445 413.46 76.7874 413.678 71.4739 415.35L71.9573 416.889ZM89.3399 416.244C96.7349 417.548 102.304 420.132 106.132 423.933L107.27 422.788C103.138 418.686 97.227 415.996 89.6213 414.655L89.3399 416.244ZM106.141 423.942C109.999 427.652 111.445 432.134 110.497 437.482L112.086 437.762C113.126 431.893 111.511 426.867 107.261 422.779L106.141 423.942ZM110.497 437.482C110.056 439.975 109.243 442.089 108.074 443.843L109.417 444.736C110.729 442.768 111.613 440.437 112.086 437.762L110.497 437.482ZM108.08 443.835C106.892 445.573 105.581 446.989 104.151 448.095L105.137 449.371C106.719 448.148 108.143 446.602 109.412 444.744L108.08 443.835ZM104.149 448.096C102.751 449.182 100.937 450.398 98.6977 451.745L99.5291 453.127C101.801 451.761 103.673 450.508 105.139 449.369L104.149 448.096ZM98.7049 451.741C96.2177 453.203 94.3067 454.534 93.0025 455.736L94.0958 456.922C95.2773 455.833 97.0758 454.569 99.5219 453.132L98.7049 451.741ZM93.0167 455.724C91.6395 456.934 90.7865 458.494 90.4551 460.365L92.044 460.646C92.3153 459.114 92.9954 457.89 94.0817 456.935L93.0167 455.724ZM91.3903 459.711L74.5619 456.744L74.2804 458.333L91.1088 461.3L91.3903 459.711ZM78.5558 483.183C75.6437 482.669 73.45 481.37 71.9056 479.307L70.6135 480.275C72.433 482.705 75.0098 484.196 78.2744 484.772L78.5558 483.183ZM71.9134 479.318C70.3687 477.183 69.8319 474.863 70.2844 472.308L68.6955 472.028C68.1657 475.019 68.8086 477.781 70.6057 480.264L71.9134 479.318ZM70.2844 472.308C70.7504 469.677 72.0216 467.719 74.0998 466.366L73.2197 465.014C70.7427 466.627 69.2341 468.987 68.6955 472.028L70.2844 472.308ZM74.089 466.372C76.2335 465.024 78.7697 464.583 81.757 465.11L82.0384 463.521C78.723 462.936 75.7672 463.412 73.2305 465.007L74.089 466.372ZM81.757 465.11C84.7444 465.637 86.9755 466.918 88.5268 468.918L89.8023 467.929C87.9673 465.563 85.3538 464.106 82.0384 463.521L81.757 465.11ZM88.5268 468.918C90.0739 470.913 90.6209 473.19 90.1564 475.812L91.7454 476.092C92.2855 473.043 91.6415 470.301 89.8023 467.929L88.5268 468.918ZM90.1564 475.812C89.7039 478.367 88.4025 480.363 86.218 481.84L87.1215 483.176C89.6629 481.458 91.2156 479.083 91.7454 476.092L90.1564 475.812ZM86.2291 481.833C84.0732 483.24 81.5357 483.708 78.5558 483.183L78.2744 484.772C81.5972 485.358 84.5628 484.847 87.1105 483.184L86.2291 481.833Z" fill="#271A58" mask="url(#path-26-outside-7_22_205)"/>
<rect x="0.405198" y="0.579161" width="166.875" height="222.834" rx="29.5" transform="matrix(0.984808 0.173648 -0.174411 0.984673 196.238 355.627)" fill="#009EE4"/>
<rect x="0.405198" y="0.579161" width="166.875" height="222.834" rx="29.5" transform="matrix(0.984808 0.173648 -0.174411 0.984673 196.238 355.627)" stroke="#271A58"/>
<mask id="path-29-outside-8_22_205" maskUnits="userSpaceOnUse" x="222.466" y="439.634" width="68.6916" height="80.7944" fill="black">
<rect fill="white" x="222.466" y="439.634" width="68.6916" height="80.7944"/>
<path d="M249.451 488.4C250.009 485.249 251.16 482.788 252.903 481.016C254.658 479.181 257.077 477.268 260.16 475.277C262.289 473.897 263.895 472.718 264.978 471.74C266.073 470.698 266.737 469.515 266.972 468.192C267.295 466.364 266.764 464.776 265.378 463.427C264.067 462.026 262.182 461.109 259.724 460.675C257.202 460.231 254.796 460.424 252.504 461.254C250.275 462.096 248.34 463.477 246.7 465.397L233.953 455.351C237.319 451.396 241.583 448.606 246.745 446.981C251.907 445.357 257.829 445.134 264.51 446.312C272.01 447.635 277.75 450.271 281.73 454.223C285.784 458.122 287.315 462.876 286.321 468.484C285.864 471.068 285.015 473.291 283.775 475.152C282.547 476.95 281.18 478.431 279.674 479.595C278.242 480.707 276.398 481.942 274.143 483.299C271.676 484.748 269.821 486.046 268.579 487.192C267.347 488.274 266.58 489.666 266.279 491.368L249.451 488.4ZM253.444 514.84C250.356 514.295 247.971 512.9 246.289 510.653C244.618 508.344 244.028 505.803 244.519 503.03C245.022 500.195 246.412 498.035 248.689 496.552C251.03 495.08 253.776 494.622 256.927 495.178C260.078 495.733 262.501 497.103 264.194 499.286C265.887 501.469 266.483 503.979 265.98 506.815C265.489 509.587 264.062 511.773 261.699 513.371C259.347 514.906 256.596 515.395 253.444 514.84Z"/>
</mask>
<path d="M249.451 488.4C250.009 485.249 251.16 482.788 252.903 481.016C254.658 479.181 257.077 477.268 260.16 475.277C262.289 473.897 263.895 472.718 264.978 471.74C266.073 470.698 266.737 469.515 266.972 468.192C267.295 466.364 266.764 464.776 265.378 463.427C264.067 462.026 262.182 461.109 259.724 460.675C257.202 460.231 254.796 460.424 252.504 461.254C250.275 462.096 248.34 463.477 246.7 465.397L233.953 455.351C237.319 451.396 241.583 448.606 246.745 446.981C251.907 445.357 257.829 445.134 264.51 446.312C272.01 447.635 277.75 450.271 281.73 454.223C285.784 458.122 287.315 462.876 286.321 468.484C285.864 471.068 285.015 473.291 283.775 475.152C282.547 476.95 281.18 478.431 279.674 479.595C278.242 480.707 276.398 481.942 274.143 483.299C271.676 484.748 269.821 486.046 268.579 487.192C267.347 488.274 266.58 489.666 266.279 491.368L249.451 488.4ZM253.444 514.84C250.356 514.295 247.971 512.9 246.289 510.653C244.618 508.344 244.028 505.803 244.519 503.03C245.022 500.195 246.412 498.035 248.689 496.552C251.03 495.08 253.776 494.622 256.927 495.178C260.078 495.733 262.501 497.103 264.194 499.286C265.887 501.469 266.483 503.979 265.98 506.815C265.489 509.587 264.062 511.773 261.699 513.371C259.347 514.906 256.596 515.395 253.444 514.84Z" fill="white"/>
<path d="M249.451 488.4L248.656 488.26L248.515 489.055L249.31 489.195L249.451 488.4ZM252.903 481.016L253.478 481.581L253.486 481.573L252.903 481.016ZM260.16 475.277L260.597 475.954L260.598 475.954L260.16 475.277ZM264.978 471.74L265.519 472.338L265.527 472.331L265.534 472.324L264.978 471.74ZM265.378 463.427L264.789 463.978L264.802 463.992L264.815 464.005L265.378 463.427ZM252.504 461.254L252.229 460.496L252.219 460.5L252.504 461.254ZM246.7 465.397L246.201 466.031L246.81 466.511L247.314 465.921L246.7 465.397ZM233.953 455.351L233.339 454.829L232.796 455.467L233.453 455.985L233.953 455.351ZM246.745 446.981L246.987 447.751L246.987 447.751L246.745 446.981ZM281.73 454.223L281.161 454.795L281.171 454.804L281.73 454.223ZM283.775 475.152L284.442 475.606L284.447 475.598L283.775 475.152ZM279.674 479.595L279.18 478.957L279.179 478.958L279.674 479.595ZM274.143 483.299L274.551 483.994L274.558 483.99L274.143 483.299ZM268.579 487.192L269.111 487.797L269.118 487.791L269.125 487.784L268.579 487.192ZM266.279 491.368L266.138 492.162L266.933 492.302L267.073 491.508L266.279 491.368ZM246.289 510.653L245.635 511.127L245.643 511.137L246.289 510.653ZM248.689 496.552L248.26 495.869L248.249 495.876L248.689 496.552ZM264.194 499.286L263.556 499.781L263.556 499.781L264.194 499.286ZM261.699 513.371L262.14 514.046L262.151 514.039L261.699 513.371ZM250.245 488.541C250.783 485.504 251.878 483.208 253.478 481.581L252.328 480.45C250.441 482.368 249.234 484.995 248.656 488.26L250.245 488.541ZM253.486 481.573C255.183 479.799 257.546 477.925 260.597 475.954L259.722 474.599C256.608 476.611 254.134 478.563 252.32 480.459L253.486 481.573ZM260.598 475.954C262.741 474.565 264.389 473.359 265.519 472.338L264.438 471.141C263.401 472.078 261.836 473.23 259.721 474.6L260.598 475.954ZM265.534 472.324C266.738 471.179 267.498 469.846 267.766 468.332L266.177 468.052C265.976 469.185 265.408 470.217 264.422 471.156L265.534 472.324ZM267.766 468.332C268.139 466.228 267.509 464.375 265.941 462.849L264.815 464.005C266.019 465.177 266.452 466.5 266.177 468.052L267.766 468.332ZM265.968 462.875C264.505 461.313 262.443 460.335 259.864 459.881L259.583 461.47C261.921 461.882 263.628 462.738 264.789 463.978L265.968 462.875ZM259.864 459.881C257.211 459.413 254.661 459.615 252.229 460.496L252.778 462.013C254.931 461.233 257.194 461.048 259.583 461.47L259.864 459.881ZM252.219 460.5C249.855 461.392 247.81 462.856 246.087 464.874L247.314 465.921C248.871 464.098 250.695 462.8 252.789 462.009L252.219 460.5ZM247.2 464.764L234.453 454.718L233.453 455.985L246.201 466.031L247.2 464.764ZM234.568 455.874C237.83 452.039 241.963 449.331 246.987 447.751L246.503 446.212C241.202 447.88 236.807 450.752 233.339 454.829L234.568 455.874ZM246.987 447.751C251.998 446.174 257.784 445.945 264.369 447.106L264.651 445.518C257.874 444.323 251.817 444.54 246.503 446.212L246.987 447.751ZM264.369 447.106C271.764 448.41 277.333 450.995 281.162 454.795L282.299 453.65C278.167 449.548 272.256 446.859 264.651 445.518L264.369 447.106ZM281.171 454.804C285.028 458.514 286.474 462.996 285.527 468.344L287.116 468.624C288.155 462.755 286.54 457.729 282.29 453.641L281.171 454.804ZM285.527 468.344C285.085 470.837 284.272 472.951 283.104 474.705L284.447 475.598C285.758 473.63 286.642 471.299 287.116 468.624L285.527 468.344ZM283.109 474.697C281.922 476.435 280.611 477.851 279.18 478.957L280.167 480.233C281.749 479.01 283.172 477.464 284.442 475.606L283.109 474.697ZM279.179 478.958C277.781 480.044 275.966 481.26 273.727 482.608L274.558 483.99C276.83 482.623 278.703 481.37 280.168 480.232L279.179 478.958ZM273.734 482.603C271.247 484.065 269.336 485.397 268.032 486.599L269.125 487.784C270.307 486.695 272.105 485.432 274.551 483.994L273.734 482.603ZM268.046 486.586C266.669 487.796 265.816 489.356 265.484 491.228L267.073 491.508C267.345 489.976 268.025 488.752 269.111 487.797L268.046 486.586ZM266.42 490.573L249.591 487.606L249.31 489.195L266.138 492.162L266.42 490.573ZM253.585 514.045C250.673 513.532 248.479 512.232 246.935 510.17L245.643 511.137C247.462 513.567 250.039 515.058 253.304 515.634L253.585 514.045ZM246.943 510.18C245.398 508.046 244.861 505.725 245.314 503.17L243.725 502.89C243.195 505.881 243.838 508.643 245.635 511.127L246.943 510.18ZM245.314 503.17C245.78 500.54 247.051 498.581 249.129 497.228L248.249 495.876C245.772 497.489 244.263 499.849 243.725 502.89L245.314 503.17ZM249.118 497.235C251.263 495.886 253.799 495.445 256.786 495.972L257.068 494.383C253.752 493.799 250.797 494.274 248.26 495.869L249.118 497.235ZM256.786 495.972C259.774 496.499 262.005 497.78 263.556 499.781L264.832 498.791C262.997 496.425 260.383 494.968 257.068 494.383L256.786 495.972ZM263.556 499.781C265.103 501.775 265.65 504.052 265.186 506.674L266.775 506.955C267.315 503.905 266.671 501.163 264.832 498.791L263.556 499.781ZM265.186 506.674C264.733 509.229 263.432 511.225 261.247 512.703L262.151 514.039C264.692 512.32 266.245 509.946 266.775 506.955L265.186 506.674ZM261.258 512.695C259.103 514.102 256.565 514.571 253.585 514.045L253.304 515.634C256.627 516.22 259.592 515.709 262.14 514.046L261.258 512.695Z" fill="#271A58" mask="url(#path-29-outside-8_22_205)"/>
<rect x="0.405198" y="0.579161" width="166.875" height="222.834" rx="29.5" transform="matrix(0.984808 0.173648 -0.174411 0.984673 371.267 386.49)" fill="#AD61FF"/>
<rect x="0.405198" y="0.579161" width="166.875" height="222.834" rx="29.5" transform="matrix(0.984808 0.173648 -0.174411 0.984673 371.267 386.49)" stroke="#271A58"/>
<mask id="path-32-outside-9_22_205" maskUnits="userSpaceOnUse" x="404.045" y="477.852" width="56.5762" height="66.2572" fill="black">
<rect fill="white" x="404.045" y="477.852" width="56.5762" height="66.2572"/>
<path d="M426.366 517.799C426.816 515.257 427.745 513.271 429.152 511.842C430.567 510.361 432.519 508.818 435.005 507.211C436.723 506.099 438.019 505.148 438.893 504.358C439.776 503.518 440.312 502.564 440.501 501.496C440.762 500.021 440.334 498.74 439.216 497.652C438.157 496.521 436.637 495.781 434.654 495.432C432.62 495.073 430.678 495.229 428.829 495.899C427.031 496.578 425.47 497.692 424.147 499.241L413.863 491.137C416.579 487.945 420.018 485.695 424.183 484.384C428.348 483.074 433.125 482.894 438.515 483.844C444.566 484.911 449.197 487.038 452.408 490.226C455.678 493.372 456.913 497.207 456.111 501.732C455.742 503.816 455.058 505.609 454.058 507.111C453.066 508.561 451.963 509.756 450.748 510.695C449.593 511.592 448.106 512.588 446.286 513.683C444.296 514.853 442.8 515.9 441.797 516.824C440.804 517.697 440.185 518.82 439.942 520.193L426.366 517.799ZM429.588 539.129C427.097 538.69 425.172 537.564 423.815 535.752C422.467 533.889 421.991 531.839 422.388 529.602C422.793 527.314 423.914 525.572 425.752 524.375C427.64 523.188 429.855 522.818 432.398 523.267C434.94 523.715 436.894 524.82 438.26 526.581C439.626 528.342 440.107 530.367 439.701 532.655C439.305 534.892 438.154 536.655 436.248 537.944C434.35 539.182 432.13 539.577 429.588 539.129Z"/>
</mask>
<path d="M426.366 517.799C426.816 515.257 427.745 513.271 429.152 511.842C430.567 510.361 432.519 508.818 435.005 507.211C436.723 506.099 438.019 505.148 438.893 504.358C439.776 503.518 440.312 502.564 440.501 501.496C440.762 500.021 440.334 498.74 439.216 497.652C438.157 496.521 436.637 495.781 434.654 495.432C432.62 495.073 430.678 495.229 428.829 495.899C427.031 496.578 425.47 497.692 424.147 499.241L413.863 491.137C416.579 487.945 420.018 485.695 424.183 484.384C428.348 483.074 433.125 482.894 438.515 483.844C444.566 484.911 449.197 487.038 452.408 490.226C455.678 493.372 456.913 497.207 456.111 501.732C455.742 503.816 455.058 505.609 454.058 507.111C453.066 508.561 451.963 509.756 450.748 510.695C449.593 511.592 448.106 512.588 446.286 513.683C444.296 514.853 442.8 515.9 441.797 516.824C440.804 517.697 440.185 518.82 439.942 520.193L426.366 517.799ZM429.588 539.129C427.097 538.69 425.172 537.564 423.815 535.752C422.467 533.889 421.991 531.839 422.388 529.602C422.793 527.314 423.914 525.572 425.752 524.375C427.64 523.188 429.855 522.818 432.398 523.267C434.94 523.715 436.894 524.82 438.26 526.581C439.626 528.342 440.107 530.367 439.701 532.655C439.305 534.892 438.154 536.655 436.248 537.944C434.35 539.182 432.13 539.577 429.588 539.129Z" fill="white"/>
<path d="M426.366 517.799L425.571 517.659L425.431 518.453L426.225 518.593L426.366 517.799ZM429.152 511.842L429.727 512.407L429.735 512.399L429.152 511.842ZM435.005 507.211L435.443 507.889L435.444 507.888L435.005 507.211ZM438.893 504.358L439.434 504.956L439.442 504.949L439.449 504.942L438.893 504.358ZM439.216 497.652L438.626 498.203L438.639 498.217L438.653 498.23L439.216 497.652ZM428.829 495.899L428.555 495.14L428.545 495.144L428.829 495.899ZM424.147 499.241L423.647 499.875L424.257 500.355L424.761 499.765L424.147 499.241ZM413.863 491.137L413.249 490.614L412.706 491.252L413.364 491.77L413.863 491.137ZM424.183 484.384L424.425 485.154L424.425 485.154L424.183 484.384ZM452.408 490.226L451.839 490.799L451.848 490.808L452.408 490.226ZM454.058 507.111L454.724 507.565L454.729 507.557L454.058 507.111ZM450.748 510.695L450.255 510.057L450.254 510.058L450.748 510.695ZM446.286 513.683L446.695 514.379L446.702 514.374L446.286 513.683ZM441.797 516.824L442.33 517.429L442.337 517.423L442.344 517.417L441.797 516.824ZM439.942 520.193L439.802 520.987L440.596 521.127L440.737 520.333L439.942 520.193ZM423.815 535.752L423.161 536.225L423.169 536.235L423.815 535.752ZM425.752 524.375L425.322 523.693L425.312 523.7L425.752 524.375ZM438.26 526.581L437.622 527.076L437.622 527.076L438.26 526.581ZM436.248 537.944L436.688 538.619L436.699 538.612L436.248 537.944ZM427.16 517.939C427.59 515.512 428.463 513.691 429.727 512.407L428.577 511.276C427.026 512.851 426.042 515.002 425.571 517.659L427.16 517.939ZM429.735 512.399C431.092 510.979 432.988 509.475 435.443 507.889L434.568 506.534C432.049 508.161 430.043 509.743 428.569 511.284L429.735 512.399ZM435.444 507.888C437.176 506.767 438.513 505.788 439.434 504.956L438.352 503.76C437.525 504.507 436.271 505.431 434.567 506.535L435.444 507.888ZM439.449 504.942C440.441 503.998 441.073 502.894 441.296 501.636L439.707 501.356C439.551 502.233 439.111 503.037 438.337 503.774L439.449 504.942ZM441.296 501.636C441.606 499.886 441.079 498.339 439.779 497.074L438.653 498.23C439.589 499.141 439.919 500.157 439.707 501.356L441.296 501.636ZM439.805 497.1C438.596 495.809 436.898 495.008 434.794 494.637L434.513 496.226C436.376 496.555 437.719 497.234 438.626 498.203L439.805 497.1ZM434.794 494.637C432.629 494.255 430.544 494.42 428.555 495.141L429.104 496.657C430.813 496.038 432.611 495.891 434.513 496.226L434.794 494.637ZM428.545 495.144C426.611 495.874 424.94 497.072 423.534 498.718L424.761 499.765C426.001 498.313 427.451 497.282 429.114 496.653L428.545 495.144ZM424.647 498.608L414.363 490.503L413.364 491.77L423.647 499.875L424.647 498.608ZM414.478 491.659C417.09 488.589 420.399 486.42 424.425 485.154L423.942 483.615C419.638 484.969 416.067 487.302 413.249 490.614L414.478 491.659ZM424.425 485.154C428.439 483.891 433.081 483.705 438.374 484.639L438.656 483.05C433.17 482.083 428.257 482.257 423.942 483.615L424.425 485.154ZM438.374 484.639C444.32 485.687 448.78 487.762 451.839 490.799L452.976 489.653C449.614 486.315 444.812 484.135 438.656 483.05L438.374 484.639ZM451.848 490.808C454.922 493.764 456.072 497.328 455.317 501.592L456.906 501.872C457.754 497.086 456.434 492.979 452.967 489.645L451.848 490.808ZM455.317 501.592C454.964 503.585 454.315 505.27 453.386 506.664L454.729 507.557C455.801 505.949 456.521 504.047 456.906 501.872L455.317 501.592ZM453.391 506.656C452.441 508.047 451.394 509.176 450.255 510.057L451.242 511.333C452.532 510.335 453.692 509.076 454.724 507.565L453.391 506.656ZM450.254 510.058C449.132 510.929 447.674 511.907 445.871 512.992L446.702 514.374C448.538 513.27 450.054 512.255 451.243 511.332L450.254 510.058ZM445.878 512.988C443.867 514.17 442.315 515.25 441.251 516.231L442.344 517.417C443.285 516.549 444.726 515.536 446.695 514.379L445.878 512.988ZM441.265 516.218C440.126 517.219 439.421 518.51 439.148 520.053L440.737 520.333C440.95 519.13 441.482 518.175 442.33 517.429L441.265 516.218ZM440.083 519.399L426.507 517.005L426.225 518.593L439.802 520.987L440.083 519.399ZM429.729 538.335C427.413 537.926 425.681 536.896 424.461 535.268L423.169 536.235C424.664 538.231 426.78 539.453 429.447 539.923L429.729 538.335ZM424.469 535.279C423.247 533.59 422.825 531.761 423.182 529.742L421.593 529.462C421.158 531.917 421.687 534.187 423.161 536.225L424.469 535.279ZM423.182 529.742C423.551 527.659 424.554 526.118 426.192 525.051L425.312 523.7C423.275 525.026 422.035 526.969 421.593 529.462L423.182 529.742ZM426.181 525.058C427.873 523.994 429.879 523.642 432.257 524.061L432.538 522.472C429.832 521.995 427.407 522.382 425.322 523.693L426.181 525.058ZM432.257 524.061C434.635 524.48 436.398 525.497 437.622 527.076L438.898 526.086C437.39 524.142 435.245 522.949 432.538 522.472L432.257 524.061ZM437.622 527.076C438.842 528.649 439.274 530.44 438.907 532.515L440.496 532.795C440.939 530.293 440.41 528.036 438.898 526.086L437.622 527.076ZM438.907 532.515C438.549 534.533 437.524 536.107 435.796 537.276L436.699 538.612C438.784 537.202 440.061 535.25 440.496 532.795L438.907 532.515ZM435.807 537.269C434.105 538.379 432.1 538.753 429.729 538.335L429.447 539.923C432.161 540.402 434.595 539.985 436.688 538.619L435.807 537.269Z" fill="#271A58" mask="url(#path-32-outside-9_22_205)"/>
<rect x="0.405198" y="0.579161" width="166.875" height="222.834" rx="29.5" transform="matrix(0.984808 0.173648 -0.174411 0.984673 546.297 417.352)" fill="#565EEF"/>
<rect x="0.405198" y="0.579161" width="166.875" height="222.834" rx="29.5" transform="matrix(0.984808 0.173648 -0.174411 0.984673 546.297 417.352)" stroke="#271A58"/>
<g filter="url(#filter0_d_22_205)">
<rect width="217.818" height="290.424" rx="30" transform="matrix(0.984808 0.173648 -0.174411 0.984673 217.995 88.4719)" fill="#FFC700"/>
<rect x="-0.405198" y="-0.579161" width="218.818" height="291.424" rx="30.5" transform="matrix(0.984808 0.173648 -0.174411 0.984673 217.888 88.5334)" stroke="#271A58"/>
<rect x="-0.405198" y="-0.579161" width="218.818" height="291.424" rx="30.5" transform="matrix(0.984808 0.173648 -0.174411 0.984673 217.888 88.5334)" stroke="black" stroke-opacity="0.2"/>
</g>
<path d="M333.119 231.789C332.696 227.609 330.541 225.972 329.491 225.422C329.142 225.239 328.912 225.172 328.912 225.172L309.159 213.636L276.286 224.993L279.552 247.003C286.2 247.059 292.704 248.021 299.198 249.182C310.656 251.237 322.08 253.933 334.187 253.462C335.549 246.181 333.614 236.674 333.119 231.789Z" fill="url(#paint0_linear_22_205)"/>
<path d="M336.387 250.372C327.625 248.53 324.057 243.669 325.158 232.16C325.281 230.867 324.064 199.126 341.468 201.569C357.102 203.768 355.38 213.616 352.017 229.931C348.661 246.242 343.93 251.957 336.387 250.372Z" fill="url(#paint1_linear_22_205)"/>
<path d="M338.634 233.305C325.302 230.509 326.965 199.394 341.864 201.627C354.671 203.547 352.718 213.03 351.324 221.143C349.314 232.813 344.82 234.605 338.634 233.305Z" fill="url(#paint2_linear_22_205)"/>
<path d="M331.298 248.603C332.747 249.362 334.415 249.956 336.387 250.371C343.93 251.956 348.66 246.241 352.022 229.931C355.261 214.209 356.932 204.508 343.048 201.862C347.799 206.337 350.677 214.846 347.857 228.544C343.844 248.026 338.958 250.173 331.298 248.603Z" fill="url(#paint3_linear_22_205)"/>
<path d="M348.627 203.623C350.452 204.5 352.126 205.893 353.092 207.799C354.083 209.681 354.439 211.861 354.502 213.986C354.622 218.277 353.8 222.494 352.966 226.645C352.095 230.791 351.256 234.976 349.868 239.002C349.177 241.01 348.38 242.995 347.352 244.856C346.323 246.688 344.964 248.49 343.074 249.384C344.84 248.274 346.037 246.493 347.047 244.674C348.061 242.84 348.837 240.874 349.5 238.873C350.836 234.867 351.654 230.707 352.436 226.536C353.194 222.377 354.042 218.199 354.066 214.001C354.052 211.912 353.758 209.789 352.838 207.941C351.942 206.08 350.42 204.593 348.627 203.623Z" fill="#975500"/>
<path d="M248.56 243.964C247.616 249.731 249.893 252.764 251.092 253.918C251.489 254.304 251.772 254.482 251.772 254.482L273.864 277.683L321.648 275.356L325.233 244.59C316.422 241.909 308.118 238.072 299.908 233.965C285.418 226.719 283.266 198.344 254.944 214.522C250.514 223.731 249.662 237.236 248.56 243.964Z" fill="url(#paint4_linear_22_205)"/>
<path d="M297.567 252.916C309.145 253.528 314.762 264.435 314.835 269.646L318.783 268.842L320.276 249.143L325.747 231.906L325.994 224.677L302.389 220.926L279.299 220.556L277.846 209.844C277.761 209.83 276.983 209.691 276.898 209.671L260.962 208.781C259.168 209.158 257.803 209.823 257.062 210.866C254.29 214.769 252.585 220.159 251.405 225.619C253.01 231.156 258.062 234.723 262.852 235.508C268.481 236.429 272.593 232.511 275.234 229.074C275.234 229.074 274.484 235.962 283.111 240.035C283.111 240.035 287.994 252.409 297.567 252.916Z" fill="url(#paint5_linear_22_205)"/>
<path d="M263.11 233.131C256.478 232.045 251.913 225.496 252.73 214.749C253.553 204.003 255.174 192.665 265.693 194.388C276.213 196.111 278.493 200.835 276.869 215.073C275.244 229.317 269.972 234.255 263.11 233.131Z" fill="url(#paint6_linear_22_205)"/>
<path d="M287.975 238.894C279.784 237.552 276.309 233.125 276.927 222.219C276.995 220.998 274.757 191.107 290.983 192.636C305.559 194.002 304.309 203.371 301.765 218.909C299.22 234.447 295.024 240.048 287.975 238.894Z" fill="url(#paint7_linear_22_205)"/>
<path d="M289.939 223.991C283.147 226.261 278.927 225.645 276.988 220.706C276.969 221.225 276.95 221.744 276.92 222.226C276.303 233.126 279.783 237.56 287.969 238.901C293.731 239.844 297.578 236.272 300.181 226.471C299.044 223.304 293.947 222.652 289.939 223.991Z" fill="url(#paint8_linear_22_205)"/>
<path d="M265.122 219.439C259.542 218.525 255.517 214.14 255.862 207.213C256.207 200.287 257.203 192.998 266.057 194.448C274.91 195.898 276.969 199.027 276.06 208.194C275.151 217.361 270.895 220.384 265.122 219.439Z" fill="url(#paint9_linear_22_205)"/>
<path d="M289.459 222.703C276.996 220.662 277.449 191.246 291.344 192.679C303.287 193.913 301.808 202.946 300.796 210.663C299.341 221.759 295.243 223.65 289.459 222.703Z" fill="url(#paint10_linear_22_205)"/>
<path d="M283.194 237.457C284.567 238.112 286.133 238.592 287.975 238.894C295.03 240.049 299.214 234.451 301.759 218.914C304.211 203.94 305.42 194.713 292.452 192.842C297.016 196.845 299.983 204.744 297.847 217.791C294.807 236.349 290.349 238.595 283.194 237.457Z" fill="url(#paint11_linear_22_205)"/>
<path d="M264.248 226.547C257.504 225.443 252.843 218.918 253.403 208.261C253.101 210.373 252.901 212.57 252.73 214.749C251.908 225.495 256.472 232.044 263.11 233.131C269.544 234.185 274.545 229.799 276.486 217.51C273.879 224.822 269.524 227.411 264.248 226.547Z" fill="url(#paint12_linear_22_205)"/>
<path d="M276.868 215.08C278.42 201.518 276.409 196.591 267.117 194.668C271.881 196.314 278.145 217.628 262.218 232.889C262.518 232.961 262.799 233.087 263.104 233.137C269.972 234.256 275.244 229.318 276.868 215.08Z" fill="url(#paint13_linear_22_205)"/>
<path d="M277.31 209.735C277.065 214.31 276.825 218.96 275.41 223.383C274.736 225.589 273.827 227.756 272.441 229.622C271.096 231.511 269.067 232.916 266.827 233.403C262.335 234.181 257.589 232.022 255.217 228.057C252.714 224.161 252.308 219.273 252.736 214.751C252.535 219.293 253.1 224.075 255.546 227.824C257.888 231.636 262.497 233.594 266.723 232.801C268.817 232.37 270.734 231.108 272.06 229.307C273.419 227.535 274.346 225.428 275.041 223.26C276.455 218.911 276.831 214.3 277.31 209.735Z" fill="#975500"/>
<path d="M284.786 238.081C283.411 238.108 282.254 237.333 281.207 236.531C280.157 235.712 279.263 234.677 278.583 233.505C277.202 231.157 276.722 228.396 276.595 225.721C276.512 223.013 276.853 220.363 276.906 217.694C277.008 215.028 277.14 212.349 277.426 209.696C277.285 212.367 277.271 215.031 277.239 217.703C277.273 220.374 277.03 223.063 277.187 225.686C277.329 228.3 277.827 230.956 279.141 233.143C279.79 234.235 280.631 235.193 281.619 235.957C282.62 236.74 283.768 237.163 284.786 238.081Z" fill="#975500"/>
<path d="M297.566 252.92C287.994 252.413 283.111 240.039 283.111 240.039C274.484 235.966 275.234 229.077 275.234 229.077C272.588 232.514 268.481 236.433 262.852 235.511C258.062 234.727 253.004 231.158 251.405 225.622C251.651 224.487 251.934 223.364 252.226 222.254L252.184 222.241C251.371 225.296 250.779 228.443 250.298 231.478C254.191 238.077 261.644 240.14 266.733 239.437C268.113 239.245 275.03 235.413 278.965 241.051C283.233 247.162 288.094 254.877 298.376 256.314C308.657 257.752 314.825 269.643 314.825 269.643C314.761 264.438 309.145 253.532 297.566 252.92Z" fill="url(#paint14_linear_22_205)"/>
<path d="M312.433 239.157C304.26 237.538 300.419 233.136 301.697 222.855C303.152 211.157 302.23 192.879 317.425 194.88C331.992 196.801 328.925 206.022 326.625 220.768C323.811 238.819 319.469 240.556 312.433 239.157Z" fill="url(#paint15_linear_22_205)"/>
<path d="M314.426 223.162C307.502 225.427 303.289 224.669 301.55 219.35C301.51 219.9 301.467 220.46 301.421 220.975C300.334 232.6 303.642 237.413 311.816 239.032C317.567 240.175 321.581 236.453 324.619 226.04C323.607 222.642 318.51 221.824 314.426 223.162Z" fill="url(#paint16_linear_22_205)"/>
<path d="M313.701 223.901C306.995 222.568 304.576 221.564 305.014 213.266C305.236 208.997 305.322 193.275 317.787 194.937C329.736 196.533 326.79 206.622 325.445 214.835C323.51 226.654 319.479 225.048 313.701 223.901Z" fill="url(#paint17_linear_22_205)"/>
<path d="M307.672 237.582C309.031 238.258 310.59 238.817 312.432 239.153C322.272 240.942 323.77 235.409 326.624 220.764C329.374 206.648 331.838 197.466 318.895 195.134C323.384 199.131 325.127 207.236 322.73 219.53C319.322 237.025 314.821 238.965 307.672 237.582Z" fill="url(#paint18_linear_22_205)"/>
<path d="M308.653 238.09C307.153 238.039 305.932 237.094 304.879 236.09C303.825 235.058 303.028 233.764 302.511 232.372C301.479 229.566 301.399 226.537 301.559 223.617C301.728 220.675 302.262 217.787 302.685 214.904C303.103 212.014 303.544 209.122 303.616 206.205C303.669 209.126 303.344 212.048 302.99 214.948C302.646 217.85 302.184 220.738 302.12 223.64C302.038 226.521 302.112 229.48 303.123 232.117C303.621 233.425 304.369 234.62 305.354 235.566C306.327 236.557 307.578 237.054 308.653 238.09Z" fill="#975500"/>
<path d="M324.089 196.77C325.464 197.477 326.737 198.511 327.553 199.923C328.365 201.328 328.756 202.957 328.896 204.58C329.167 207.846 328.694 211.105 328.181 214.3C327.593 217.494 326.936 220.666 326.27 223.83C325.95 225.412 325.677 227.013 325.303 228.597C325.108 229.384 324.933 230.187 324.632 230.952C324.487 231.335 324.309 231.719 324.052 232.049C323.819 232.366 323.411 232.718 323.009 232.561C323.842 232.496 324.026 231.506 324.317 230.831C324.562 230.075 324.782 229.302 324.938 228.514C325.273 226.935 325.507 225.339 325.797 223.736L327.596 214.193C328.17 211.025 328.718 207.812 328.529 204.611C328.433 203.019 328.085 201.431 327.34 200.054C326.627 198.647 325.436 197.552 324.089 196.77Z" fill="#975500"/>
<path d="M297.682 194.254C299.011 194.845 300.261 195.686 301.21 196.856C302.165 198.021 302.755 199.471 303.111 200.951C303.783 203.944 303.614 207.053 303.338 210.074C302.99 213.102 302.505 216.101 301.972 219.086C301.717 220.575 301.509 222.083 301.198 223.575C301.032 224.321 300.893 225.072 300.615 225.801C300.484 226.163 300.32 226.526 300.078 226.836C299.856 227.15 299.448 227.433 299.075 227.297C299.851 227.218 300.035 226.325 300.294 225.685C300.509 224.975 300.699 224.249 300.827 223.502C301.097 222.016 301.272 220.514 301.491 219.008C301.928 216.006 302.439 213.017 302.745 210.012C303.081 207.023 303.328 203.973 302.75 201.041C302.228 198.1 300.338 195.515 297.682 194.254Z" fill="#975500"/>
<path d="M325.578 237.258L325.668 231.953C325.645 230.189 325.531 228.404 325.657 226.631C325.832 223.088 326.387 219.527 327.542 216.162C327.026 219.677 326.626 223.16 326.27 226.674C326.131 228.428 325.898 230.184 325.799 231.957L325.578 237.258Z" fill="#975500"/>
<path d="M284.359 232.421C285.386 226.145 289.67 226.641 301.206 227.446C309.457 228.024 318.659 227.243 329.171 233.637C341.168 240.933 352.01 250.431 349.949 263.955C348.104 276.059 332.069 317.593 292.74 311.152C253.411 304.711 243.799 280.573 248.56 243.963L314.835 269.647C314.835 269.647 318.399 257.057 310.618 251.873C307.301 249.661 299.412 249.717 294.307 248.881C289.202 248.045 282.971 240.896 284.359 232.421Z" fill="url(#paint19_linear_22_205)"/>
<path d="M325.271 288.519C306.529 298.504 306.723 305.787 291.184 303.243C275.645 300.698 267.034 290.465 261.151 281.888C255.275 273.307 251.335 259.969 249.951 250.071C249.626 247.737 249.119 245.745 248.554 244.035C243.81 280.602 253.438 304.714 292.74 311.151C332.069 317.591 348.104 276.058 349.949 263.954C350.756 258.657 349.569 253.991 347.121 249.818C345.159 267.223 340.668 280.315 325.271 288.519Z" fill="url(#paint20_radial_22_205)"/>
<path d="M320.907 257.748C321.841 250.168 314.217 241.18 306.735 240.763C300.269 240.398 288.624 239.419 284.288 233.658C283.665 241.577 289.453 248.085 294.307 248.88C299.412 249.716 307.301 249.661 310.618 251.873C318.399 257.057 314.835 269.647 314.835 269.647C314.835 269.647 319.973 265.329 320.907 257.748Z" fill="url(#paint21_radial_22_205)"/>
<path d="M349.949 263.955C352.01 250.431 341.168 240.933 329.171 233.637C318.659 227.243 309.457 228.024 301.206 227.447C292.408 226.831 287.841 226.422 285.713 229.037C296.851 228.023 307.042 228.54 319.141 232.035C334.905 236.588 345.367 248.942 346.275 257.225C347.171 265.415 344.468 279.947 344.406 280.292C347.626 273.619 349.405 267.512 349.949 263.955Z" fill="url(#paint22_linear_22_205)"/>
<path d="M314.835 269.65C315.548 266.636 315.83 263.472 315.382 260.418C314.967 257.392 313.656 254.379 311.269 252.584C308.963 250.664 305.814 250.441 302.927 250.02C299.975 249.662 297.002 249.536 294.047 249.03C291.041 248.371 288.576 246.247 286.801 243.761C285.049 241.233 283.947 238.151 283.94 234.98C283.919 233.4 284.108 231.809 284.663 230.294C285.242 228.772 286.604 227.551 288.116 227.191C291.123 226.405 294.138 226.744 297.107 226.863C303.034 227.438 308.999 227.274 314.928 228.199C317.877 228.677 320.79 229.435 323.571 230.567C326.355 231.682 328.973 233.205 331.48 234.837C336.488 238.111 341.362 241.798 345.134 246.618C346.987 249.031 348.52 251.759 349.392 254.734C350.277 257.705 350.447 260.886 349.96 263.959C350.399 260.878 350.177 257.712 349.253 254.78C348.341 251.844 346.783 249.17 344.911 246.811C341.142 242.066 336.283 238.421 331.274 235.193C326.304 231.857 320.728 229.545 314.849 228.714C309.001 227.831 302.987 228.027 297.066 227.481C294.123 227.338 291.091 227.007 288.268 227.737C286.846 228.084 285.701 229.117 285.151 230.5C284.626 231.894 284.425 233.454 284.44 234.97C284.433 238.03 285.478 241.022 287.169 243.489C288.876 245.918 291.284 247.992 294.135 248.631C297.038 249.147 300.03 249.293 302.979 249.667C304.457 249.852 305.935 250.065 307.395 250.424C308.826 250.796 310.329 251.295 311.462 252.346C313.888 254.239 315.173 257.339 315.539 260.397C315.927 263.482 315.59 266.643 314.835 269.65Z" fill="#975500"/>
<path opacity="0.75" d="M255.603 246.396C251.249 250.35 257.94 278.327 267.701 286.695C277.456 295.063 291.371 295.267 294.873 290.457C298.375 285.648 288.446 275.663 280.707 265.132C267.353 246.967 259.957 242.443 255.603 246.396Z" fill="url(#paint23_radial_22_205)"/>
<path opacity="0.75" d="M343.377 264.209C345.742 261.822 338.885 243.489 331.962 237.717C325.039 231.946 309.514 232.161 307.761 235.13C306.014 238.1 319.968 244.06 325.825 251.153C335.938 263.392 341.017 266.597 343.377 264.209Z" fill="url(#paint24_radial_22_205)"/>
</g>
<defs>
<filter id="filter0_d_22_205" x="101.143" y="46.3453" width="397.56" height="456.195" filterUnits="userSpaceOnUse" color-interpolation-filters="sRGB">
<feFlood flood-opacity="0" result="BackgroundImageFix"/>
<feColorMatrix in="SourceAlpha" type="matrix" values="0 0 0 0 0 0 0 0 0 0 0 0 0 0 0 0 0 0 127 0" result="hardAlpha"/>
<feMorphology radius="14.4434" operator="erode" in="SourceAlpha" result="effect1_dropShadow_22_205"/>
<feOffset dy="24.0724"/>
<feGaussianBlur stdDeviation="40.3212"/>
<feComposite in2="hardAlpha" operator="out"/>
<feColorMatrix type="matrix" values="0 0 0 0 0 0 0 0 0 0 0 0 0 0 0 0 0 0 0.3 0"/>
<feBlend mode="normal" in2="BackgroundImageFix" result="effect1_dropShadow_22_205"/>
<feBlend mode="normal" in="SourceGraphic" in2="effect1_dropShadow_22_205" result="shape"/>
</filter>
<linearGradient id="paint0_linear_22_205" x1="331.316" y1="232.33" x2="261.845" y2="239.35" gradientUnits="userSpaceOnUse">
<stop offset="0.00132565" stop-color="#FFCB4B"/>
<stop offset="1" stop-color="#FFD748"/>
</linearGradient>
<linearGradient id="paint1_linear_22_205" x1="339.017" y1="224.624" x2="329.411" y2="270.384" gradientUnits="userSpaceOnUse">
<stop offset="0.00132565" stop-color="#FFCB4B"/>
<stop offset="1" stop-color="#FFD748"/>
</linearGradient>
<linearGradient id="paint2_linear_22_205" x1="337.733" y1="231.316" x2="345.107" y2="196.188" gradientUnits="userSpaceOnUse">
<stop offset="0.00132565" stop-color="#FFCB4B"/>
<stop offset="1" stop-color="#FFD748"/>
</linearGradient>
<linearGradient id="paint3_linear_22_205" x1="323.708" y1="211.271" x2="422.523" y2="296.208" gradientUnits="userSpaceOnUse">
<stop stop-color="#FFBC47" stop-opacity="0"/>
<stop offset="1" stop-color="#C86F34"/>
</linearGradient>
<linearGradient id="paint4_linear_22_205" x1="251.82" y1="240.24" x2="347.052" y2="255.836" gradientUnits="userSpaceOnUse">
<stop offset="0.00132565" stop-color="#FFCB4B"/>
<stop offset="1" stop-color="#FFD748"/>
</linearGradient>
<linearGradient id="paint5_linear_22_205" x1="271.417" y1="295.494" x2="297.743" y2="205.646" gradientUnits="userSpaceOnUse">
<stop stop-color="#A1541E" stop-opacity="0"/>
<stop offset="1" stop-color="#C86F34"/>
</linearGradient>
<linearGradient id="paint6_linear_22_205" x1="265.35" y1="210.533" x2="258.206" y2="254.151" gradientUnits="userSpaceOnUse">
<stop offset="0.00132565" stop-color="#FFCB4B"/>
<stop offset="1" stop-color="#FFD748"/>
</linearGradient>
<linearGradient id="paint7_linear_22_205" x1="289.51" y1="214.489" x2="282.367" y2="258.107" gradientUnits="userSpaceOnUse">
<stop offset="0.00132565" stop-color="#FFCB4B"/>
<stop offset="1" stop-color="#FFD748"/>
</linearGradient>
<linearGradient id="paint8_linear_22_205" x1="290.238" y1="213.493" x2="280.773" y2="271.291" gradientUnits="userSpaceOnUse">
<stop stop-color="#FFBC47" stop-opacity="0"/>
<stop offset="1" stop-color="#C86F34"/>
</linearGradient>
<linearGradient id="paint9_linear_22_205" x1="264.309" y1="216.89" x2="269.792" y2="183.406" gradientUnits="userSpaceOnUse">
<stop offset="0.00132565" stop-color="#FFCB4B"/>
<stop offset="1" stop-color="#FFD748"/>
</linearGradient>
<linearGradient id="paint10_linear_22_205" x1="288.553" y1="220.861" x2="294.037" y2="187.377" gradientUnits="userSpaceOnUse">
<stop offset="0.00132565" stop-color="#FFCB4B"/>
<stop offset="1" stop-color="#FFD748"/>
</linearGradient>
<linearGradient id="paint11_linear_22_205" x1="274.845" y1="202.583" x2="370.543" y2="276.862" gradientUnits="userSpaceOnUse">
<stop stop-color="#FFBC47" stop-opacity="0"/>
<stop offset="1" stop-color="#C86F34"/>
</linearGradient>
<linearGradient id="paint12_linear_22_205" x1="265.288" y1="209.389" x2="260.308" y2="259.352" gradientUnits="userSpaceOnUse">
<stop stop-color="#FFBC47" stop-opacity="0"/>
<stop offset="1" stop-color="#C86F34"/>
</linearGradient>
<linearGradient id="paint13_linear_22_205" x1="242.527" y1="191.53" x2="389.07" y2="317.009" gradientUnits="userSpaceOnUse">
<stop stop-color="#FFBC47" stop-opacity="0"/>
<stop offset="1" stop-color="#C86F34"/>
</linearGradient>
<linearGradient id="paint14_linear_22_205" x1="273.046" y1="266.752" x2="308.019" y2="201.564" gradientUnits="userSpaceOnUse">
<stop stop-color="#FFBC47" stop-opacity="0"/>
<stop offset="1" stop-color="#C86F34"/>
</linearGradient>
<linearGradient id="paint15_linear_22_205" x1="314.767" y1="215.761" x2="306.503" y2="257.482" gradientUnits="userSpaceOnUse">
<stop offset="0.00132565" stop-color="#FFCB4B"/>
<stop offset="1" stop-color="#FFD748"/>
</linearGradient>
<linearGradient id="paint16_linear_22_205" x1="315.179" y1="211.976" x2="303.006" y2="273.43" gradientUnits="userSpaceOnUse">
<stop stop-color="#FFBC47" stop-opacity="0"/>
<stop offset="1" stop-color="#C86F34"/>
</linearGradient>
<linearGradient id="paint17_linear_22_205" x1="313.288" y1="222.183" x2="319.723" y2="189.696" gradientUnits="userSpaceOnUse">
<stop offset="0.00132565" stop-color="#FFCB4B"/>
<stop offset="1" stop-color="#FFD748"/>
</linearGradient>
<linearGradient id="paint18_linear_22_205" x1="301.403" y1="204.065" x2="393.096" y2="279.914" gradientUnits="userSpaceOnUse">
<stop stop-color="#FFBC47" stop-opacity="0"/>
<stop offset="1" stop-color="#C86F34"/>
</linearGradient>
<linearGradient id="paint19_linear_22_205" x1="248.465" y1="260.732" x2="343.697" y2="276.328" gradientUnits="userSpaceOnUse">
<stop offset="0.00132565" stop-color="#FFCB4B"/>
<stop offset="1" stop-color="#FFD748"/>
</linearGradient>
<radialGradient id="paint20_radial_22_205" cx="0" cy="0" r="1" gradientUnits="userSpaceOnUse" gradientTransform="translate(312.235 164.06) rotate(9.30056) scale(172.979 180.855)">
<stop offset="0.590276" stop-color="#FFBC47" stop-opacity="0"/>
<stop offset="1" stop-color="#FF8900"/>
</radialGradient>
<radialGradient id="paint21_radial_22_205" cx="0" cy="0" r="1" gradientUnits="userSpaceOnUse" gradientTransform="translate(314.435 231.828) rotate(9.30056) scale(112.731 50.4692)">
<stop stop-color="#FFBC47" stop-opacity="0"/>
<stop offset="1" stop-color="#FFA754"/>
</radialGradient>
<linearGradient id="paint22_linear_22_205" x1="327.433" y1="221.515" x2="297.162" y2="299.74" gradientUnits="userSpaceOnUse">
<stop stop-color="#FFBC47" stop-opacity="0"/>
<stop offset="1" stop-color="#FFA200"/>
</linearGradient>
<radialGradient id="paint23_radial_22_205" cx="0" cy="0" r="1" gradientUnits="userSpaceOnUse" gradientTransform="translate(273.324 272.475) rotate(-128.4) scale(32.6117 14.9582)">
<stop stop-color="#FBE07A"/>
<stop offset="0.2654" stop-color="#FCDF73" stop-opacity="0.7346"/>
<stop offset="0.6548" stop-color="#FDDB5F" stop-opacity="0.3452"/>
<stop offset="1" stop-color="#FFD748" stop-opacity="0"/>
</radialGradient>
<radialGradient id="paint24_radial_22_205" cx="0" cy="0" r="1" gradientUnits="userSpaceOnUse" gradientTransform="translate(327.597 244.889) rotate(48.7595) scale(25.0915 9.32712)">
<stop stop-color="#FBE07A"/>
<stop offset="0.2654" stop-color="#FCDF73" stop-opacity="0.7346"/>
<stop offset="0.6548" stop-color="#FDDB5F" stop-opacity="0.3452"/>
<stop offset="1" stop-color="#FFD748" stop-opacity="0"/>
</radialGradient>
<clipPath id="clip0_22_205">
<rect width="600" height="500" fill="white"/>
</clipPath>
</defs>
</svg>
